/* XPM */
static char *sprite[] = {
/* columns rows colors chars-per-pixel */
"64 64 225 2 ",
"   c #190909",
".  c #1C0D0D",
"X  c #16120B",
"o  c #1A1816",
"O  c #270B0A",
"+  c #3A0302",
"@  c #3B0E0E",
"#  c #31150C",
"$  c #231212",
"%  c #241C13",
"&  c #2B1916",
"*  c #221D1C",
"=  c #2D1918",
"-  c #351714",
";  c #331B1A",
":  c #3B1E1D",
">  c #182E0F",
",  c #1B3811",
"<  c #3F2A0C",
"1  c #282216",
"2  c #242C14",
"3  c #372416",
"4  c #35231D",
"5  c #3D211E",
"6  c #332C1C",
"7  c #283518",
"8  c #2D3E1A",
"9  c #39331F",
"0  c #35391D",
"q  c #3F2121",
"w  c #322A22",
"e  c #3E2C21",
"r  c #373928",
"t  c #3C3C3C",
"y  c #480606",
"u  c #550202",
"i  c #5B0505",
"p  c #451413",
"a  c #471B1A",
"s  c #501313",
"d  c #650000",
"f  c #533B0B",
"g  c #432222",
"h  c #442B22",
"j  c #4B2A26",
"k  c #472E28",
"l  c #4E2828",
"z  c #512424",
"x  c #522A29",
"c  c #5C2E2E",
"v  c #493827",
"b  c #58332C",
"n  c #553D2C",
"m  c #413F3F",
"M  c #593734",
"N  c #543E32",
"B  c #602F2F",
"V  c #653333",
"C  c #6B3535",
"Z  c #653D35",
"A  c #713938",
"S  c #7B3E3E",
"D  c #13520F",
"F  c #125C0F",
"G  c #174713",
"H  c #1C4E14",
"J  c #145210",
"K  c #1D5315",
"L  c #135A11",
"P  c #1B5C15",
"I  c #2B4319",
"U  c #264818",
"Y  c #29551A",
"T  c #30541E",
"R  c #1A6415",
"E  c #146C13",
"W  c #1B6916",
"Q  c #1B6E16",
"!  c #157314",
"~  c #1A7615",
"^  c #167B15",
"/  c #1B7B15",
"(  c #1E7D18",
")  c #226319",
"_  c #26671A",
"`  c #387413",
"'  c #3C4B22",
"]  c #2E5C22",
"[  c #2F6425",
"{  c #297923",
"}  c #435912",
"|  c #674D03",
" . c #6D5109",
".. c #4A6C0C",
"X. c #637609",
"o. c #544227",
"O. c #5D412C",
"+. c #574636",
"@. c #514D32",
"#. c #684A3C",
"$. c #7B403F",
"%. c #605836",
"&. c #476937",
"*. c #746E36",
"=. c #504742",
"-. c #575846",
";. c #575454",
":. c #774841",
">. c #675A45",
",. c #755844",
"<. c #50704F",
"1. c #7C684E",
"2. c #716C50",
"3. c #8D6D0B",
"4. c #997C08",
"5. c #AB6F00",
"6. c #997527",
"7. c #8A6F3B",
"8. c #8D7338",
"9. c #834343",
"0. c #894747",
"q. c #856854",
"w. c #8E7554",
"e. c #8B715A",
"r. c #9A795A",
"t. c #847762",
"y. c #977E6C",
"u. c #168316",
"i. c #188417",
"p. c #178A17",
"a. c #1B8619",
"s. c #198D18",
"d. c #199419",
"f. c #1A9A1A",
"g. c #24821B",
"h. c #278B25",
"j. c #219121",
"k. c #378E34",
"l. c #578936",
"z. c #499931",
"x. c #658435",
"c. c #5D8648",
"v. c #5F9B49",
"b. c #779157",
"n. c #7BA57B",
"m. c #868403",
"M. c #A78908",
"N. c #B48A03",
"B. c #BD9704",
"V. c #B18F18",
"C. c #B8BB03",
"Z. c #9D842C",
"A. c #B59726",
"S. c #B28D3A",
"D. c #CB8501",
"F. c #D38D02",
"G. c #C89308",
"H. c #DC9700",
"J. c #E99606",
"K. c #D6A703",
"L. c #D2B302",
"P. c #E2A400",
"I. c #F8A300",
"U. c #EBB900",
"Y. c #FCB900",
"T. c #C58F2D",
"R. c #CE9B26",
"E. c #F6C500",
"W. c #FCC400",
"Q. c #FECB00",
"!. c #F6DC00",
"~. c #EBE200",
"^. c #988A57",
"/. c #A58E46",
"(. c #B99956",
"). c #85A950",
"_. c #A7A75C",
"`. c #998565",
"'. c #8F936F",
"]. c #9C9D77",
"[. c #AC9363",
"{. c #A98D74",
"}. c #A89873",
"|. c #B69377",
" X c #BC9B7B",
".X c #9EA165",
"XX c #B9A468",
"oX c #BAA477",
"OX c #D7AA47",
"+X c #DCB24E",
"@X c #CCA658",
"#X c #E3BB5B",
"$X c #C7947B",
"%X c #D8B368",
"&X c #C5A776",
"*X c #C8B370",
"=X c #E7BB66",
"-X c #F1B674",
";X c #F6CF6B",
":X c #FBD379",
">X c #90958B",
",X c #A79785",
"<X c #B99E86",
"1X c #BFA68D",
"2X c #A3A2A2",
"3X c #F69089",
"4X c #C9B684",
"5X c #D0B68E",
"6X c #FFB2AD",
"7X c #D8C28D",
"8X c #DBC694",
"9X c #D0D193",
"0X c #E2C486",
"qX c #F5D388",
"wX c #E1CB97",
"eX c #E8D29B",
"rX c #F8DC9B",
"tX c #EED8A2",
"yX c #FBD6A4",
"uX c #F4DDA6",
"iX c #FDE3A4",
"pX c #F5E0AD",
"aX c #FCE4AB",
"sX c #FDE7B2",
"dX c #C9C8C8",
/* pixels */
"f.f.f.f.f.f.f.f.f.f.f.f.f.f.f.f.f.f.f.f.f.f.f.f.f.f.f.f.f.f.f.f.f.f.f.f.f.f.f.f.f.f.f.f.f.f.f.f.f.f.f.f.f.f.f.f.f.f.f.f.f.f.f.f.",
"f.f.f.f.f.f.f.f.f.f.f.f.f.f.f.f.f.f.f.f.f.f.f.f.f.f.f.f.f.f.f.f.f.f.f.f.f.f.f.f.f.f.f.f.f.f.f.f.f.f.f.f.f.f.f.f.f.f.f.f.f.f.f.f.",
"f.f.f.f.f.f.f.f.f.f.f.f.f.f.f.f.f.f.f.f.f.f.f.f.f.f.f.f.f.f.f.f.f.f.f.f.f.f.f.f.f.f.f.f.f.f.f.f.f.f.f.f.f.f.f.f.f.f.f.f.f.f.f.f.",
"f.f.f.f.f.f.f.f.f.f.f.f.f.f.f.f.f.f.f.f.f.f.f.f.f.f.f.f.f.f.f.f.f.f.f.f.f.f.f.f.f.f.f.f.f.f.f.f.f.f.f.f.f.f.f.f.f.f.f.f.f.f.f.f.",
"f.f.f.f.f.f.f.f.f.f.f.f.f.f.f.f.f.f.f.f.f.f.f.f.f.f.f.f.f.f.d.f.f.f.f.f.f.f.f.f.f.f.f.f.f.f.f.f.f.f.f.f.f.f.f.f.f.f.f.f.f.f.f.f.",
"f.f.f.f.f.f.f.f.f.f.f.f.f.f.f.f.f.f.f.f.f.f.f.f.f.f.f.f.s._ ] _ ^ f.f.f.f.f.f.f.f.f.f.f.f.f.f.f.f.f.f.f.f.f.f.f.f.f.f.f.f.f.f.f.",
"f.f.f.f.f.f.f.f.f.f.f.f.f.f.f.f.f.f.f.f.f.f.f.f.d.u.s.i.T b V V o._ s.f.f.f.f.f.f.f.f.f.f.f.f.f.f.f.f.f.f.f.f.f.f.f.f.f.f.f.f.f.",
"f.f.f.f.f.f.f.f.f.f.f.f.f.f.f.f.f.f.f.f.f.f.s.P ' n v v V V V S 9.Z U p.f.f.f.f.f.f.f.f.f.f.f.f.f.f.f.f.f.f.f.f.f.f.f.f.f.f.f.f.",
"f.f.f.f.f.f.f.f.f.f.f.f.f.f.f.f.f.f.f.f.f.s.8 C C V V V V V V S 0.0.$.8 d.f.f.f.f.f.f.f.f.f.f.f.f.f.f.f.f.f.f.f.f.f.f.f.f.f.f.f.",
"f.f.f.f.f.f.f.f.f.f.f.f.f.f.f.f.f.f.f.f.d.I C V V V V V V V V A 0.0.0.$.I d.f.f.f.f.f.f.f.f.f.f.f.f.f.f.f.f.f.f.f.f.f.f.f.f.f.f.",
"f.f.f.f.f.f.f.f.f.f.f.f.f.f.f.f.f.f.f.f.P c V V V V V V V V V V 9.0.0.0.A P d.f.f.f.f.f.f.f.f.f.f.f.f.f.f.f.f.f.f.f.f.f.f.f.f.f.",
"f.f.f.f.f.f.f.f.f.f.f.f.f.f.f.f.f.f.f.s.9 V V V V V V V V V V V A :.9.9.S v ~ f.f.f.f.f.f.f.f.f.f.f.f.f.f.f.f.f.f.f.f.f.f.f.f.f.",
"f.f.f.f.f.f.f.f.f.f.f.f.f.f.f.f.f.f.f.E b V V V V V V V V V V V V C C C C b U d.f.f.f.f.f.f.f.f.f.f.f.f.f.f.f.f.f.f.f.f.f.f.f.f.",
"f.f.f.f.f.f.f.f.f.f.f.f.f.f.f.f.f.f.f.K V V V V V V V V V V V V V V V V V V v ^ f.f.f.f.f.f.f.f.f.f.f.f.f.f.f.f.f.f.f.f.f.f.f.f.",
"f.f.f.f.f.f.f.f.f.f.f.f.f.f.f.f.f.f.f.U V V V V V V V V V V V V V V V V V V b _ f.f.f.f.f.f.f.f.f.f.f.f.f.f.f.f.f.f.f.f.f.f.f.f.",
"f.f.f.f.f.f.f.f.f.f.f.f.f.f.f.f.f.f.f.I V V V V V V V V V V V V V V V V V V c T d.f.d.u.^ d.f.f.f.f.f.f.f.f.f.f.f.f.f.f.f.f.f.f.",
"f.f.f.f.f.f.f.f.f.f.f.f.f.f.f.f.f.f.f.8 c x x x x x l V V V V V V V V V V V c 8 E R H 2 > / f.f.f.f.f.f.f.f.f.f.f.f.f.f.f.f.f.f.",
"f.f.f.f.f.f.f.f.f.f.f.f.f.f.f.f.f.d.^ 7 x c c c c V ; V V c x z l g a a p p p # 2 4 : ; 7 u.f.f.f.f.f.f.f.f.f.f.f.f.f.f.f.f.f.f.",
"f.f.f.f.f.f.f.f.f.f.f.f.f.f.f.f.E I n V V V V V V V g @ y y u i d d d d d d d + : g : & Y d.f.f.f.f.f.f.f.f.f.f.f.f.f.f.f.f.f.f.",
"f.f.f.f.f.f.f.f.f.f.f.f.f.f.u.7 V C V V V V V V V V V p d d d d d d d d d d d y : g ; 6 ! f.f.f.f.f.f.f.f.f.f.f.f.f.f.f.f.f.f.f.",
"f.f.f.f.f.f.f.f.f.f.f.f.f.Q v C V V V V V V V V V V V c p u i d d d d d d d d y @ : 5 U d.f.f.f.f.f.f.f.f.f.f.f.f.f.f.f.f.f.f.f.",
"f.f.f.f.f.f.f.f.f.f.f.f.p.' V V V V V V V V V V V V V V V z s i u u u u u u y + - 5 0 u.f.f.f.f.f.f.f.f.f.f.f.f.f.f.f.f.f.f.f.f.",
"f.f.f.f.f.f.f.f.f.f.f.f./ v V V V V V V V V V V V V V V V C V x z a p p @ @ p a 5 I ^ f.f.f.f.f.f.f.f.f.f.f.f.f.f.f.f.f.f.f.f.f.",
"f.f.f.f.f.f.f.f.f.f.f.f.~ 9 c V V V V V V c c c c x x x x l l l l g q : : 3 f I R p.f.f.f.f.f.f.f.f.f.f.f.f.f.f.f.f.f.f.f.f.f.f.",
"f.f.f.f.f.f.f.f.f.f.f.f.p., : g g g g g g g g g : : ; = = - < f |  .3.B.K.~.C.` f.f.f.f.f.f.f.f.f.f.f.f.f.f.f.f.f.f.f.f.f.f.f.f.",
"f.f.f.f.f.f.f.f.f.f.f.f.f.s.F , > > > 1 w 6 | 3.4.N.G.K.U.W.W.Y.I.J.U.Q.!.C.} ^ f.f.f.f.f.f.f.f.f.f.f.f.f.f.f.f.f.f.f.f.f.f.f.f.",
"f.f.f.f.f.f.f.f.f.f.f.f.f.f.f.f.f.f.{ ].eX;XU.Q.Q.W.W.Y.Y.I.H.J.T.Z.K.L.m.@.*.i.f.f.f.f.f.f.f.f.f.f.f.f.f.f.f.f.f.f.f.f.f.f.f.f.",
"f.f.f.f.f.f.f.f.f.f.f.f.f.f.f.f.f.s.c.}.S.K.P.P.P.H.F.G.T.6.| XXoXZ.A./.w 2X<.u.f.f.f.f.f.f.f.f.f.f.f.f.f.f.f.f.f.f.f.f.f.f.f.f.",
"f.f.f.f.f.f.f.f.f.f.f.f.f.f.f.f.f.u.b.4X+XOXOX@X%X%X%X1.@.r t 7X4X4X8XtX-.;.<.u.f.f.f.f.f.f.f.f.f.f.f.f.f.f.f.f.f.f.f.f.f.f.f.f.",
"f.f.f.f.f.f.f.f.f.f.f.f.f.f.f.f.f.d.c.wX:X;X:XrXaXaXyXy.m ;.2.uXuXsXaXaX'.=.&.i.f.f.f.f.f.f.f.f.f.f.f.f.f.f.f.f.f.f.f.f.f.f.f.f.",
"f.f.f.f.f.f.f.f.f.f.f.f.f.f.f.f.f.f.R 2.rX:X;XqXiXyX6X3X$X}.tXaXuXaXaXaXtX X$Xz.f.f.f.f.f.f.f.f.f.f.f.f.f.f.f.f.f.f.f.f.f.f.f.f.",
"f.f.f.f.f.f.f.f.f.f.f.f.f.f.f.f.f.f.` M.4.3.8.#X=X=X=X-XqXrXiXiXeXoX5XuXeX.X{ f.f.f.f.f.f.f.f.f.f.f.f.f.f.f.f.f.f.f.f.f.f.f.f.f.",
"f.f.f.f.f.f.f.f.f.f.f.f.f.f.f.f.f.s.X.U.Q.E.B.V.V.A.6.7.(.(.@X@X*X&XXX_.x.~ f.f.f.f.f.f.f.f.f.f.f.f.f.f.f.f.f.f.f.f.f.f.f.f.f.f.",
"f.f.f.f.f.f.f.f.f.f.f.f.f.f.s.! ~ ..B.W.Q.Q.K.M.A.T.f l e.w.S.8.r.a %.&.s.f.f.f.f.f.f.f.f.f.f.f.f.f.f.f.f.f.f.f.f.f.f.f.f.f.f.f.",
"f.f.f.f.f.f.f.f.f.f.f.f.f.f.p. .N.K.W.Q.Q.G.[.{.e.&X:.l ,.r./.o.q.- +.>.J f.f.f.f.f.f.f.f.f.f.f.f.f.f.f.f.f.f.f.f.f.f.f.f.f.f.f.",
"f.f.f.f.f.f.f.f.f.f.f.f.f.f.f.P 5.H.Y.Q.Q.*.t.1X{.|.r.l N |.,.+ q g M <X,XE f.f.f.f.f.f.f.f.f.f.f.f.f.f.f.f.f.f.f.f.f.f.f.f.f.f.",
"f.f.f.f.f.f.f.f.f.f.f.f.f.f.f.D | D.I.I.R.uX7X[.5X,.O.; #.e.p #.q.: q y.,X] f.f.f.f.f.f.f.f.f.f.f.f.f.f.f.f.f.f.f.f.f.f.f.f.f.f.",
"f.f.f.f.f.f.f.f.f.f.f.f.f.f.f.^ X.N.D.F.*XaXrX(.`.e = = - a #.|.,.& k oX5X_ f.f.f.f.f.f.f.f.f.f.f.f.f.f.f.f.f.f.f.f.f.f.f.f.f.f.",
"f.f.f.f.f.f.f.f.f.f.f.f.f.f.f.f.d./ ` ..].wXoX*.0 & ; = O ,. X5X+.; n 8XaXv.f.f.f.f.f.f.f.f.f.f.f.f.f.f.f.f.f.f.f.f.f.f.f.f.f.f.",
"f.f.f.f.f.f.f.f.f.f.f.f.f.f.f.f.f.f.f.d.&.,.M e X . $ O O r.{. Xk ; O.0XaX9Xh.f.f.f.f.f.f.f.f.f.f.f.f.f.f.f.f.f.f.f.f.f.f.f.f.f.",
"f.f.f.f.f.f.f.f.f.f.f.f.f.f.f.f.f.f.f.f.I x g = = ; . O = =.,X,X= ; O.0XaXeXk.f.f.f.f.f.f.f.f.f.f.f.f.f.f.f.f.f.f.f.f.f.f.f.f.f.",
"f.f.f.f.f.f.f.f.f.f.f.f.f.f.f.f.f.f.f.f.R : = l ; % ^.& = ;.dXdX= ; 5 n N >.{ f.f.f.f.f.f.f.f.f.f.f.f.f.f.f.f.f.f.f.f.f.f.f.f.f.",
"f.f.f.f.f.f.f.f.f.f.f.f.f.f.f.f.f.f.f.f.f.% g g g & N 3 = ; M M = ; : : g * G d.f.f.f.f.f.f.f.f.f.f.f.f.f.f.f.f.f.f.f.f.f.f.f.f.",
"f.f.f.f.f.f.f.f.f.f.f.f.f.f.f.f.f.f.f.f.d.1 g g g = = . = g x l ; = ; $ * o H f.f.f.f.f.f.f.f.f.f.f.f.f.f.f.f.f.f.f.f.f.f.f.f.f.",
"f.f.f.f.f.f.f.f.f.f.f.f.f.f.f.f.f.f.f.f.f.R 4 g ; . . = : l x l q ; ; $ . & H d.f.f.f.f.f.f.f.f.f.f.f.f.f.f.f.f.f.f.f.f.f.f.f.f.",
"f.f.f.f.f.f.f.f.f.f.f.f.f.f.f.f.f.f.f.f.f.d.K $ . O g l g l x l g l g q X q 8 u.f.f.f.f.f.f.f.f.f.f.f.f.f.f.f.f.f.f.f.f.f.f.f.f.",
"f.f.f.f.f.f.f.f.f.f.f.f.f.f.f.f.f.f.f.f.f.f.p.L 2 4 ; : ; q g : = 4 N 1.w g I d.f.f.f.f.f.f.f.f.f.f.f.f.f.f.f.f.f.f.f.f.f.f.f.f.",
"f.f.f.f.f.f.f.f.f.f.f.f.f.f.f.f.f.f.f.f.f.f.f.s.b.eXeXXX[ ! ! E 7 XXiXuX`.e P f.f.f.f.f.f.f.f.f.f.f.f.f.f.f.f.f.f.f.f.f.f.f.f.f.",
"f.f.f.f.f.f.f.f.f.f.f.f.f.f.f.f.f.f.f.f.f.f.f.a.'.tXaX_.a.f.f.h.>X^.eXaXpX-.^ f.f.f.f.f.f.f.f.f.f.f.f.f.f.f.f.f.f.f.f.f.f.f.f.f.",
"f.f.f.f.f.f.f.f.f.f.f.f.f.f.f.f.f.f.f.f.f.f.d.[ }.uXiX).f.f.p.<.n.l.*XwXoX>.Q f.f.f.f.f.f.f.f.f.f.f.f.f.f.f.f.f.f.f.f.f.f.f.f.f.",
"f.f.f.f.f.f.f.f.f.f.f.f.f.f.f.f.f.f.f.f.f.f.( 9 V 1.`.l.f.f.p.k.j.g.%.,.M l T f.f.f.f.f.f.f.f.f.f.f.f.f.f.f.f.f.f.f.f.f.f.f.f.f.",
"f.f.f.f.f.f.f.f.f.f.f.f.f.f.f.f.f.f.f.f.f.f.Q g x l j _ f.f.f.f.f.i.8 l x l I s.f.f.f.f.f.f.f.f.f.f.f.f.f.f.f.f.f.f.f.f.f.f.f.f.",
"f.f.f.f.f.f.f.f.f.f.f.f.f.f.f.f.f.f.f.f.d.d.R 1 : l 4 u.f.f.f.f.f.f.K ; = = U d.f.f.f.f.f.f.f.f.f.f.f.f.f.f.f.f.f.f.f.f.f.f.f.f.",
"f.f.f.f.f.f.f.f.f.f.f.f.f.f.f.f.f.d.Q T ' 9 l l g = J f.f.f.f.f.f.f.u.2 l x h 0 T Y ( d.f.f.f.f.f.f.f.f.f.f.f.f.f.f.f.f.f.f.f.f.",
"f.f.f.f.f.f.f.f.f.f.f.f.f.f.f.f.d.R l V V c x x l g J f.f.f.f.f.f.f.P h l x x c V V h R d.f.f.f.f.f.f.f.f.f.f.f.f.f.f.f.f.f.f.f.",
"f.f.f.f.f.f.f.f.f.f.f.f.f.f.f.f.s.0 x c c x x l x x 2 f.f.f.f.f.f.d.I l x l x x c B c 0 ^ f.f.f.f.f.f.f.f.f.f.f.f.f.f.f.f.f.f.f.",
"f.f.f.f.f.f.f.f.f.f.f.f.f.f.f.f.s.1 5 q : : : : : : % d.f.f.f.f.f.p.8 q g g g g l l l e Q f.f.f.f.f.f.f.f.f.f.f.f.f.f.f.f.f.f.f.",
"f.f.f.f.f.f.f.f.f.f.f.f.f.f.f.f.d.^ ! ! ! ! ! ! ! ! ! f.f.f.f.f.f.d.^ E E R L D D D J L u.f.f.f.f.f.f.f.f.f.f.f.f.f.f.f.f.f.f.f.",
"f.f.f.f.f.f.f.f.f.f.f.f.f.f.f.f.f.f.f.f.f.f.f.f.f.f.f.f.f.f.f.f.f.f.f.f.f.f.f.f.f.f.f.f.f.f.f.f.f.f.f.f.f.f.f.f.f.f.f.f.f.f.f.f.",
"f.f.f.f.f.f.f.f.f.f.f.f.f.f.f.f.f.f.f.f.f.f.f.f.f.f.f.f.f.f.f.f.f.f.f.f.f.f.f.f.f.f.f.f.f.f.f.f.f.f.f.f.f.f.f.f.f.f.f.f.f.f.f.f.",
"f.f.f.f.f.f.f.f.f.f.f.f.f.f.f.f.f.f.f.f.f.f.f.f.f.f.f.f.f.f.f.f.f.f.f.f.f.f.f.f.f.f.f.f.f.f.f.f.f.f.f.f.f.f.f.f.f.f.f.f.f.f.f.f.",
"f.f.f.f.f.f.f.f.f.f.f.f.f.f.f.f.f.f.f.f.f.f.f.f.f.f.f.f.f.f.f.f.f.f.f.f.f.f.f.f.f.f.f.f.f.f.f.f.f.f.f.f.f.f.f.f.f.f.f.f.f.f.f.f.",
"f.f.f.f.f.f.f.f.f.f.f.f.f.f.f.f.f.f.f.f.f.f.f.f.f.f.f.f.f.f.f.f.f.f.f.f.f.f.f.f.f.f.f.f.f.f.f.f.f.f.f.f.f.f.f.f.f.f.f.f.f.f.f.f.",
"f.f.f.f.f.f.f.f.f.f.f.f.f.f.f.f.f.f.f.f.f.f.f.f.f.f.f.f.f.f.f.f.f.f.f.f.f.f.f.f.f.f.f.f.f.f.f.f.f.f.f.f.f.f.f.f.f.f.f.f.f.f.f.f."
};
