/* XPM */
static char *tree[] = {
/* columns rows colors chars-per-pixel */
"64 64 124 2 ",
"   c #1D0E00",
".  c #1D1300",
"X  c #171A00",
"o  c #1A1A00",
"O  c #200F00",
"+  c #231300",
"@  c #2D1600",
"#  c #251A00",
"$  c #2D1A00",
"%  c #331A00",
"&  c #3A1D00",
"*  c #142301",
"=  c #1E2000",
"-  c #142B01",
";  c #1B2901",
":  c #0B3402",
">  c #063E04",
",  c #093B03",
"<  c #113102",
"1  c #1B3402",
"2  c #252300",
"3  c #2F2400",
"4  c #262D01",
"5  c #2D2F02",
"6  c #392100",
"7  c #362A00",
"8  c #2A3402",
"9  c #2B3D03",
"0  c #353201",
"q  c #024405",
"w  c #084404",
"e  c #004D07",
"r  c #0A4C05",
"t  c #134905",
"y  c #1C4A05",
"u  c #015205",
"i  c #085006",
"p  c #025308",
"a  c #045C09",
"s  c #244305",
"d  c #2B4205",
"f  c #264A06",
"g  c #2E4905",
"h  c #314C05",
"j  c #265206",
"k  c #2C5206",
"l  c #235609",
"z  c #235C09",
"x  c #2A5908",
"c  c #355305",
"v  c #385705",
"b  c #3B5C05",
"n  c #08660C",
"m  c #096D0E",
"M  c #1D6F0D",
"N  c #0C710F",
"B  c #1F720E",
"V  c #0F7B11",
"C  c #107E12",
"Z  c #1E7A11",
"A  c #21640C",
"S  c #2B6009",
"D  c #226B0D",
"F  c #296B0A",
"G  c #366307",
"H  c #3E6106",
"J  c #346E0A",
"K  c #386909",
"L  c #20700F",
"P  c #2F730C",
"I  c #34750C",
"U  c #3D750A",
"Y  c #307D0E",
"T  c #3B7C0C",
"R  c #416407",
"E  c #456B07",
"W  c #486F07",
"Q  c #466E08",
"!  c #486F08",
"~  c #477007",
"^  c #497207",
"/  c #4B7408",
"(  c #4E7909",
")  c #517E09",
"_  c #128413",
"`  c #1D8413",
"'  c #158C15",
"]  c #1B8C15",
"[  c #179217",
"{  c #1B9217",
"}  c #1A9618",
"|  c #1A9A1A",
" . c #2C810F",
".. c #32820F",
"X. c #3E820D",
"o. c #3E880F",
"O. c #278310",
"+. c #228B13",
"@. c #358C11",
"#. c #388B10",
"$. c #2B9414",
"%. c #249817",
"&. c #289817",
"*. c #329313",
"=. c #3A9111",
"-. c #4C820B",
";. c #40890E",
":. c #54810B",
">. c #58860B",
",. c #578B0C",
"<. c #5F8F0B",
"1. c #4C980F",
"2. c #56900C",
"3. c #5F900A",
"4. c #53980E",
"5. c #5E9E0E",
"6. c #469410",
"7. c #469B11",
"8. c #62930B",
"9. c #67990C",
"0. c #6B9F0D",
"q. c #6AA00D",
"w. c #71A70E",
"e. c #72A80E",
/* pixels */
"| | | | | | | | | | | | | | | | | | | | | | | | | | | | | | | | | | | | | | | | | | | | | | | | | | | | | | | | | | | | | | | | ",
"| | | | | | | | | | | | | | | | | | | | | | | | | | | | | | | | | | | | | | | | | | | | | | | | | | | | | | | | | | | | | | | | ",
"| | | | | | | | | | | | | | | | | | | | | | | | | | | | | | | | | | | | | | | | | | | | | | | | | | | | | | | | | | | | | | | | ",
"| | | | | | | | | | | | | | | | | | | | | | | | | | | | | | | | | | | *.*.| | | | | | | | | | | | | | | | | | | | | | | | | | | ",
"| | | | | | | | | | | | | | | | | | | | | | | | | | } | | | | $.&.| %.q.2.| | | | #.#.| | | | | | | | | | | | | | | | | | | | | ",
"| | | | | | | | | | | | | | | | | | | | | =.&.| | @.-.o.} | | 2.9.*.4.w.8.&.| @.-.:.-.| | | | | | | | | | | | | | | | | | | | | ",
"| | | | | | | | | | | | | | | | | | | | | ,.q.7.$.-.:.:.:.@.#.<.q.<.q.e.8.-.-.) ( / -.| | | $.&.| | | | | | | | | | | | | | | | ",
"| | | | | | | | | | | | | | | | | &.&.| | :.0.w.8.:.:.:.:.:.:.:.8.>.8.q.<.:.) ( / E ) =.1.5.0.=.| | | | | | | | | | | | | | | | ",
"| | | | | | | | | | | | | | | | %.q.q.9.2.:.<.9.<.:.:.:.:.:.( / ) :.:.:.) ( ( ) ) / <.q.w.q.<.&.| | | | | | | | | | | | | | | | ",
"| | | | | | | | | | | | | | | | | 6.w.e.w.0.:.:.:.:.:.:.:.) ^ ( / ) ( ( :.:.( ( ) / 8.q.0.<.:.o.@.@.&.| | | | | | | | | | | | | ",
"| | | | | | | | | | | | | }  .$.$.;.<.0.q.0.>.:.:.:.:.:.:.) ^ 8.8.( ( 8.q.<./ ( ) ) :.<.:.:.:.:.:.:.( U | | | | | | | | | | | | ",
"| | | | | | | | | | | | | { E ) :.:.:.:.>.:.:.:.:.:.:.:.:.) E <.0.:.<.w.0.) Q ) :.:.:.:.:.:.) ( / ~ E +.| | | | | | | | | | | | ",
"| | | | | | | | | | | | | { H ! ) :.:.:.:.:.:.:.:.<.>.:.:.) ^ ( :.:.>.8.:./ ( <.:.) ) :.:.:./ R R E E Y { | | | | | | | | | | | ",
"| | | | | | | | | { I U U U E R E ( ) :.:.:.) <.q.q.<.:.:.:.) ) :.:.:.:.:.) 8.q.q.8.( ) :.:.) E ^ 3.8.8.:.X.+.| | | | | | | | | ",
"| | | | | | | | | } E ) :.) ) ( E R / :.:.) ) 0.9.<.:.:.:.:.:.:.:.:.:.:.:.:.:.<.8.8.:./ ) :.:.( / <.3.<.:.( ..| | | | | | | | | ",
"| | | | | | | | | | O.^ ) :.:.) ^ / ) :.:./ / :.) ( / ( :.:.:.:.:.:.:.:.:.:./ ^ ^ / E R / ) :.) E / ) ( ^ U | | | | | | | | | | ",
"| | | | | | | | | | O.H E / / E ^ ) :.:.:./ R E E Q ^ :.0.8.:.:.:.:.:.:.:.:.) / ^ E E E E ^ E E R R R R H O.{ } | | | | | | | | ",
"| | | | | | | |  .U ~ / / / / E ( :.:.) ( / ( ) ) ) :.9.w.q.<.:.:.:.:.:.:.:.:.:.:.:.:.:.) / R R E / / ( ( ( Q I | | | | | | | | ",
"| | | | | | | { ~ ) ) ) :.) ) E E / / E E ) :.:.:.:.:.0.e.w.<.:.:.:.:.:.:.:.<.8.:.:.:.:.:.) E / ) :.:.:.) ^ E +.| | | | | | | | ",
"| | | | | | | |  .~ ( ( / ^ R E Q / Q R R ) :.:.:.:.:.0.e.q.:.:.:.:.:.:.:.:.8.w.9.) / ) ) ) / / ) ) ) ^ E H J | | | | | | | | | ",
"| | | | | | | | } K R R E / >.8.0.9.) E R ) :.:.) ( ) 8.e.9.:.) :.:.:.:.:.) :.9.q.3.E R E E R R E E R R E / ~ T T +.| | | | | | ",
"| | | | | | | { P H R / >.9.q.0.8.>./ R R ^ ) ) ( R / <.0.<.( ^ ) :.:.:.) E ^ :.<.<.E R R / / / E R R R E ^ ^ E E +.| | | | | | ",
"| | | | | | ] G H R ( :.>.<.>.:.) ^ R R R R E E R R E ) :.:./ R ( :.:.:.) R R E / / R E :.0.q.q.8.( E H b v c c D | | | | | | | ",
"| | | | | ` c H R R ^ / ( ( ( / E R R R R R R R E ^ R E ) ) E R E ) :.) E R R R R R R ^ <.9.0.0.9.>.) E b h d d M | | | | | | | ",
"| | | | | l c b b b b b R R E R R E >.<.) E R E 8.q.:.R R R R R R E ^ E R R ^ ( ( ^ R E ) :.:.:.:.) ( E H H c d d l ] | | | | | ",
"| | | | | A d d d d d b E / ( E E >.q.q.>./ R / q.w.<./ R R R R R E E R R E ) :.:.) ^ R E ! / / / E R b b b b d d d z | | | | | ",
"| | | | | } Z j d d h H / ) / R / 0.w.0.:./ R ) q.q.:.) R R R R ( <.>.( R E ) :.:.:.) E R R E / ( ( E b h d d d d d z | | | | | ",
"| | | | | | | | B d c H E R H R :.w.q.>.) E R ( 0.8.:.) R R R E <.q.q.:.^ R ( :.:.:.:.) E R ( ) :.:.) / b d d d d A { | | | | | ",
"| | | | | | | { f d g b c h b R <.0.<.) E R R ! :.:.:.) R R R / <.w.w.8./ R E ( ) :.:.:./ R E ^ ^ / / ^ R c d d g ] | | | | | | ",
"| | | | | | | A d d d d d d b R :.:.( E R R R R ) :.:.( R R R / :.q.e.8.( R E R E / ( ( / R / / R b b b b d c b c x } | | | | | ",
"| | | | | | | z d d d d d d H R W ^ R R E R E E E ) ) ^ R ( / Q :.0.w.8./ ^ ) E R R R R H H ^ ) ( b d d d d d d g j } | | | | | ",
"| | | | | | | } A d d c c d b R R H H ^ ( R ) ) ^ R E R ( ) ) Q ) 9.w.<./ / :.) R / ( E b b H E ( ^ d d h c h d d ] | | | | | | ",
"| | | | | | | | L h b H b d h c c c R ( ^ R ) :.) E H R ) :.) E / <.8.:.E / :.) R / :.) b d c b R H d v / ( / E b z { | | | | | ",
"| | | | | | | { k b H H c d d d d d R / H H ( :.:./ b c ^ ) ) E R ) :.) R E ) ) b H / ( b d d g c h d R ( ) ) ( ^ b ` | | | | | ",
"| | | | | | | D b H H c g b E H c d c c d h ^ ) ) E c d b E E c b E ( E c b / / c d b H c d d g d d d b H R H b c k { | | | | | ",
"| | | | | | | Z g g d d b ) ) E b d d d d d b / ^ b d d d c c d g b R b d d b b d d d g d h H ^ Q c d d h h d g A { | | | | | | ",
"| | | | | | | | ] D d c / ) / R c d b H b g g v c d d h d d d d d h c g d d d d d d d d d b E ) ) ^ g d d d j ] | | | | | | | | ",
"| | | | | | | | | { d E ) ^ H c d h / ) E b d d d d H E b d d d d d d d d d h c h d d d d c H ^ ) ) b d c b k ] | | | | | | | | ",
"| | | | | | | | | D h E R b g d d v ( ) E H d d d h / ) R v d d h c h d d h H H b h d d d d b R ^ ) E d b H b F | | | | | | | | ",
"| | | | | | | | | l d h d d d d d b ( ( R b d d d h / ) R b d h H / ^ h d c R R H c d d d d d c b E R d d c c S | | | | | | | | ",
"| | | | | | | | | D f d d d c d d c / Q b h d h g d R / R c d c R ) ) H d c H R R v d d g c h d d h h d d B ` ] | | | | | | | | ",
"| | | | | | | | | | { ] j b H h d h E H c d v H H h h H b d d c R ( ) R d d b H R c d d b H H h d d d d d B | | | | | | | | | | ",
"| | | | | | | | | | | | x H H h d d c h d d H R H b d d d d d h H / ) H d d g b H c d d b R R b d d d d d z | | | | | | | | | | ",
"| | | | | | | | | | | { g b h d d d d d d g H R R b d d d d d d b E ( c d d d d c h d d c H R H h d s s d l | | | | | | | | | | ",
"| | | | | | | | | | | { d d d s s d d d d d b R H v d d d b c d d b R d c b d d d d d d d c H H c s e t t r ' | | | | | | | | | ",
"| | | | | | | | | | | | B D M i r s 9 9 d d b H b d d d b H H d d d d d b H h d d d d d 9 d h b c y e e e e N | | | | | | | | | ",
"| | | | | | | | | | | | | | } p e s d s s d d h d d d d b H b d d d d d b H c 9 d d d d t t s s s r e e e e a | | | | | | | | | ",
"| | | | | | | | | | | | | | ' e e e t r e s d d d 9 8 9 g c g d d d d d h b h 9 9 9 d s r e e e e e e e e e u } | | | | | | | | ",
"| | | | | | | | | | | | | | ' e e e e e e 1 9 9 9 4 + 3 9 9 9 9 9 d 9 9 9 d 9 3 8 9 9 9 w e e e e e e e e e e [ | | | | | | | | ",
"| | | | | | | | | | | | | | [ p e e e e e , * o .     % 0 0 6 7 9 d 9 7 7 9 8 . + $ 5 7 < e e e e e e e e e a | | | | | | | | | ",
"| | | | | | | | | | | | | | | a e e e e e e e q > : . & & & % % 7 4 5 & & & $   . o o * > e e e e e e e e e m | | | | | | | | | ",
"| | | | | | | | | | | | | | | N e e e e e e e e e e = & & & @ @ %   . % & & & + > e e e e e e e e e e e e e ' | | | | | | | | | ",
"| | | | | | | | | | | | | | | ' p e e e e e e e e e ; & & & + + @     O % & & % , e e e e e e e e e e e e n | | | | | | | | | | ",
"| | | | | | | | | | | | | | | | _ e e e u u u e e e 2 & & %     o X .     @ & & - e e e e e e e e e e u n } | | | | | | | | | | ",
"| | | | | | | | | | | | | | | | | _ u e u u u e e e 2 & & @ X : e q > : X . + % # q e e e e e e e e e a } | | | | | | | | | | | ",
"| | | | | | | | | | | | | | | | | | C p e e e e e e = $ # - q e e e e e e : * o o q e e e e e e e e a ' | | | | | | | | | | | | ",
"| | | | | | | | | | | | | | | | | | | [ a e e e e e , - q e e e e e e e e e e q q e e e e e e e e n } | | | | | | | | | | | | | ",
"| | | | | | | | | | | | | | | | | | | | | _ a e e e e e e e e e e e e e e e e e e e e e e e e n ' | | | | | | | | | | | | | | | ",
"| | | | | | | | | | | | | | | | | | | | | | } _ n u e e e e e e e e e e e e e e e e e u a N _ | | | | | | | | | | | | | | | | | ",
"| | | | | | | | | | | | | | | | | | | | | | | | | [ V m a p p e e e e e e e e p p a N ' | | | | | | | | | | | | | | | | | | | | ",
"| | | | | | | | | | | | | | | | | | | | | | | | | | | | | | | ' _ m n n m ' ' | | | | | | | | | | | | | | | | | | | | | | | | | ",
"| | | | | | | | | | | | | | | | | | | | | | | | | | | | | | | | | | | | | | | | | | | | | | | | | | | | | | | | | | | | | | | | ",
"| | | | | | | | | | | | | | | | | | | | | | | | | | | | | | | | | | | | | | | | | | | | | | | | | | | | | | | | | | | | | | | | ",
"| | | | | | | | | | | | | | | | | | | | | | | | | | | | | | | | | | | | | | | | | | | | | | | | | | | | | | | | | | | | | | | | "
};
