/* XPM */
static char *exit[] = {
/* columns rows colors chars-per-pixel */
"64 64 207 2 ",
"   c #0C0502",
".  c #0D0904",
"X  c #120703",
"o  c #130B03",
"O  c #1B0D02",
"+  c #1D1209",
"@  c #200D00",
"#  c #261203",
"$  c #2C1504",
"%  c #291609",
"&  c #341C06",
"*  c #3B1E04",
"=  c #3D1D09",
"-  c #27200E",
";  c #3A2304",
":  c #362E04",
">  c #3A2B07",
",  c #342D08",
"<  c #362715",
"1  c #3C2612",
"2  c #3C301E",
"3  c #431B06",
"4  c #411C0A",
"5  c #47290C",
"6  c #4D330D",
"7  c #5D300F",
"8  c #482811",
"9  c #512C10",
"0  c #65340F",
"q  c #693711",
"w  c #6A3B13",
"e  c #793D18",
"r  c #493725",
"t  c #573E23",
"y  c #275C0A",
"u  c #2F5D15",
"i  c #385716",
"p  c #1E6B0F",
"a  c #1E6C11",
"s  c #1C7C13",
"d  c #20640A",
"f  c #236D10",
"g  c #336115",
"h  c #2A7A14",
"j  c #3E7D22",
"k  c #52430A",
"l  c #514514",
"z  c #5D4D1D",
"x  c #445A1C",
"c  c #485B1E",
"v  c #585619",
"b  c #7A420E",
"n  c #684517",
"m  c #654A1E",
"M  c #6A4B1E",
"N  c #744615",
"B  c #754B1D",
"V  c #58452C",
"C  c #4D5D23",
"Z  c #525F24",
"A  c #674F21",
"S  c #6D4E22",
"D  c #654B2B",
"F  c #704E25",
"G  c #794D21",
"H  c #6F5024",
"J  c #7A5325",
"K  c #795927",
"L  c #755529",
"P  c #795629",
"I  c #7C5C2C",
"U  c #645539",
"Y  c #765D33",
"T  c #4D6C23",
"R  c #546024",
"E  c #596226",
"W  c #556D25",
"Q  c #5A6D26",
"!  c #5A6428",
"~  c #4A7C25",
"^  c #487C27",
"/  c #557327",
"(  c #5D7A2C",
")  c #6F602C",
"_  c #73672C",
"`  c #7D612D",
"'  c #64742A",
"]  c #75732F",
"[  c #6F6730",
"{  c #7C6334",
"}  c #796935",
"|  c #647F31",
" . c #6B7A32",
".. c #7C7737",
"X. c #6E5B40",
"o. c #795F43",
"O. c #776145",
"+. c #845F2E",
"@. c #825F33",
"#. c #81612E",
"$. c #88602D",
"%. c #93672F",
"&. c #846432",
"*. c #896634",
"=. c #856934",
"-. c #8A6A36",
";. c #84653A",
":. c #846B3B",
">. c #8C6C3A",
",. c #946933",
"<. c #926E3B",
"1. c #837B3A",
"2. c #89793B",
"3. c #93723D",
"4. c #93783F",
"5. c #846B48",
"6. c #8D7441",
"7. c #8D7943",
"8. c #937442",
"9. c #997442",
"0. c #957945",
"q. c #997A45",
"w. c #94764B",
"e. c #967A49",
"r. c #9A7D4B",
"t. c #8E7752",
"y. c #9C7E50",
"u. c #A07F4E",
"i. c #1A8514",
"p. c #188814",
"a. c #189217",
"s. c #1A9519",
"d. c #1A9A1A",
"f. c #278618",
"g. c #2C8D1E",
"h. c #24961D",
"j. c #2A931E",
"k. c #21991E",
"l. c #3B8423",
"z. c #368B21",
"x. c #3C8921",
"c. c #2B9620",
"v. c #259A20",
"b. c #2B9B24",
"n. c #329525",
"m. c #3B972A",
"M. c #498627",
"N. c #4A8A28",
"B. c #55832A",
"V. c #59892E",
"C. c #548E33",
"Z. c #4A9A33",
"A. c #57983A",
"S. c #698436",
"D. c #6A8539",
"F. c #788238",
"G. c #61933B",
"H. c #52A13D",
"J. c #5D9B40",
"K. c #738D42",
"L. c #699B45",
"P. c #6A9C47",
"I. c #789549",
"U. c #68A24A",
"Y. c #8B894C",
"T. c #9C814E",
"R. c #95894D",
"E. c #9D8252",
"W. c #988655",
"Q. c #9A8E52",
"!. c #8A9751",
"~. c #9D935A",
"^. c #969D5D",
"/. c #A3824D",
"(. c #A48856",
"). c #AC8955",
"_. c #A28659",
"`. c #A68A5A",
"'. c #AA8D5D",
"]. c #B38B5C",
"[. c #A4925D",
"{. c #AD915B",
"}. c #B0925B",
"|. c #86A258",
" X c #9B9B60",
".X c #AC8E61",
"XX c #B28D60",
"oX c #A49863",
"OX c #AA9A64",
"+X c #AE9669",
"@X c #AD9D6C",
"#X c #B19466",
"$X c #BA9465",
"%X c #BA946B",
"&X c #B39A6C",
"*X c #BC9B6C",
"=X c #AE9C70",
"-X c #B69670",
";X c #B69D72",
":X c #B99B72",
">X c #95A161",
",X c #A9A26D",
"<X c #B4A475",
"1X c #BAA176",
"2X c #C29F7C",
"3X c #C2A274",
"4X c #C1A07B",
/* pixels */
"d.d.d.d.d.d.d.d.d.d.d.d.d.d.d.d.d.d.d.d.d.d.d.d.d.d.d.d.d.d.k.Z.A.c.d.d.d.d.d.d.d.d.d.d.d.d.d.d.d.d.d.d.d.d.d.d.d.d.d.d.d.d.d.d.",
"d.d.d.d.d.d.d.d.d.d.d.d.d.d.d.d.d.d.d.d.d.d.d.d.d.d.d.d.d.d.H.,XoXA.k.d.d.d.d.d.d.d.d.d.d.d.d.d.d.d.d.d.d.d.d.d.d.d.d.d.d.d.d.d.",
"d.d.d.d.d.d.d.d.d.d.d.d.d.d.d.d.d.d.d.d.d.d.d.d.d.d.d.d.d.m.>X1X-XY.m.d.d.d.d.d.d.d.d.d.d.d.d.d.d.d.d.d.d.d.d.d.d.d.d.d.d.d.d.d.",
"d.d.d.d.d.d.d.d.d.d.d.d.d.d.d.d.d.d.d.d.d.d.d.d.d.d.d.d.b.|.:X2X:XE. .j.d.d.d.d.d.d.d.d.d.d.d.d.d.d.d.d.d.d.d.d.d.d.d.d.d.d.d.d.",
"d.d.d.d.d.d.d.d.d.d.d.d.d.d.d.d.d.d.d.d.d.d.d.d.d.d.d.v.U.,X:X4X:X_.} B.h.d.d.d.d.d.d.d.d.d.d.d.d.d.d.d.d.d.d.d.d.d.d.d.d.d.d.d.",
"d.d.d.d.d.d.d.d.d.d.d.d.d.d.d.d.d.d.d.d.d.d.d.d.d.d.d.A.,X;X;X1X1X`.:.[ B.d.d.d.d.d.d.d.d.d.d.d.d.d.d.d.d.d.d.d.d.d.d.d.d.d.d.d.",
"d.d.d.d.d.d.d.d.d.d.d.d.d.d.d.d.d.d.d.d.d.d.d.d.d.d.Z.>X:X:X:X<X<X[.>.&...c.d.d.d.d.d.d.d.d.d.d.d.d.d.d.d.d.d.d.d.d.d.d.d.d.d.d.",
"d.d.d.d.d.d.d.d.d.d.d.d.d.d.d.d.d.d.d.d.d.d.d.d.d.m.^.&X:X:X:X<X<XOX8.&.>.F.c.d.d.d.d.d.d.d.d.d.d.d.d.d.d.d.d.d.d.d.d.d.d.d.d.d.",
"d.d.d.d.d.d.d.d.d.d.d.d.d.d.d.d.d.d.d.d.d.d.d.d.b.U.@X:X:X;X;X:X1X&X8.&.-.4.S.c.d.d.d.d.d.d.d.d.d.d.d.d.d.d.d.d.d.d.d.d.d.d.d.d.",
"d.d.d.d.d.d.d.d.d.d.d.d.d.d.d.d.d.d.d.d.d.d.d.b.P.OX&X;X;X;X;X;X1X&X8.&.&.2.4.S.j.d.d.d.d.d.d.d.d.d.d.d.d.d.d.d.d.d.d.d.d.d.d.d.",
"d.d.d.d.d.d.d.d.d.d.d.d.d.d.d.d.d.d.d.d.d.d.b.P.OX&X;X;X;X;X;X;X1X&Xe.&.&.<.9.0.V.h.d.d.d.d.d.d.d.d.d.d.d.d.d.d.d.d.d.d.d.d.d.d.",
"d.d.d.d.d.d.d.d.d.d.d.d.d.d.d.d.d.d.d.d.d.v.P.OX%X&X;X;X;X;X;X;X1X&Xr.&.&.<.9.8.1.V.j.d.d.d.d.d.d.d.d.d.d.d.d.d.d.d.d.d.d.d.d.d.",
"d.d.d.d.d.d.d.d.d.d.d.d.d.d.d.d.d.d.d.d.d.A.OX%X%X&X=X;X;X;X;X;X1X&Xr.&.&.<.9.8.4.2.B.d.d.d.d.d.d.d.d.d.d.d.d.d.d.d.d.d.d.d.d.d.",
"d.d.d.d.d.d.d.d.d.d.d.d.d.d.d.d.d.d.d.d.A.^.&X%X%X&X@X=X;X;X;X;X:X&XE.&.&.>.8.8.8.3.1.N.s.d.d.d.d.d.d.d.d.d.d.d.d.d.d.d.d.d.d.d.",
"d.d.d.d.d.d.d.d.d.d.d.d.d.d.d.d.d.d.v.J. X+X&X%X%X&X@X&X&X;X;X;X:X&XE.&.&.>.2.2.3.3.2...N.s.d.d.d.d.d.d.d.d.d.d.d.d.d.d.d.d.d.d.",
"d.d.d.d.d.d.d.d.d.d.d.d.d.d.d.d.d.k.P.OX+X&X&X&X&X&X&X&X&X&X;X;X;X&XE.&.&.>.3.3.3.3.3.2.1.N.d.d.d.d.d.d.d.d.d.d.d.d.d.d.d.d.d.d.",
"d.d.d.d.d.d.d.d.d.d.d.d.d.d.d.d.k.A.~.OXOX&X#X+X+X&X%X%X&X&X&X&X;X&XE.=.&.-.<.3.2.2.<.<.2...N.h.d.d.d.d.d.d.d.d.d.d.d.d.d.d.d.d.",
"d.d.d.d.d.d.d.d.d.d.d.d.d.d.d.n.G.~.OX#X#X&X&X&X&X&X&X&X&X&X&X&X;X&XE.=.&.-.<.3.3.3.3.3.2.2...B.j.d.d.d.d.d.d.d.d.d.d.d.d.d.d.d.",
"d.d.d.d.d.d.d.d.d.d.d.d.d.d.n.I.[.OXOXOX#X#X&X&X&X&X&X&X&X&X&X&X;X&XE.=.#.-.>.3.3.3.<.<.<.>.2...( z.d.d.d.d.d.d.d.d.d.d.d.d.d.d.",
"d.d.d.d.d.d.d.d.d.d.d.d.d.m.I.[.OXOXOXOXOX#X#X&X&X&X&X&X&X&X&X&X&X&Xy.&.#.*.>.3.<.<.<.<.>.>.>.>.=. .x.s.d.d.d.d.d.d.d.d.d.d.d.d.",
"d.d.d.d.d.d.d.d.d.d.d.h.Z.!.[.{.OX.XOX#X#X#X#X&X&X&X&X&X&X&X&X&X&X&Xr.&.#.*.>.<.<.<.>.>.>.>.<.<.-.=.] B.g.d.d.d.d.d.d.d.d.d.d.d.",
"d.d.d.d.d.d.d.d.d.d.h.G.E.'.'.'..XOXOX.XOXOX#X&X&X&X&X&X&X&X&X&X&X&Xr.&.#.&.>.<.<.<.>.>.>.>.>.-.-.-.&.#.' x.d.d.d.d.d.d.d.d.d.d.",
"d.d.d.d.d.d.d.d.d.h.G.E.'.'.'..X.XOX.X.XOX#X#X&X#X&X#X&X#X#X&X&X&X&Xr.&.#.&.>.>.>.>.>.>.>.>.>.-.-.=.&.$.+._ x.d.d.d.d.d.d.d.d.d.",
"d.d.d.d.d.d.d.d.m.K.Q.~.[.'..XOX.X.X.X.X.XOXOX#XOX#XOXOX#XOX+X+X&X#Xe.&.I &.-.>.>.>.>.>.-.-.-.-.=.=.*.&.#.#._ ~ h.d.d.d.d.d.d.d.",
"d.d.d.d.d.d.c.A.Y.E.~.~.`.'.'..X.X.X.X.X.XOXOXOXOXOX#X#X#X#X&X&X&XOX8.&.I &.-.>.>.>.>.-.-.-.*.*.=.=.&.*.&.` ` ` ~ f.s.d.d.d.d.d.",
"d.d.d.d.d.d.C.R.(.(.`.`.`.'.'.'.'..X.X.X.XOXOXOXOXOX#X#X#X#X&X&X&X'.8.#.I &.-.>.-.-.-.-.-.*.*.*.*.*.&.&.&.+.I I [ T i.d.d.d.d.d.",
"d.d.d.d.d.d.S.E.(.'.'.'.`.`.'.'.'.'..X.X.X.XOXOX.XOXOXOXOXOX&X&X+X`.2.#.I &.-.>.-.-.-.-.-.*.*.*.*.*.&.&.&.@.+.I I ! s d.d.d.d.d.",
"d.d.d.d.d.d.D.E.(.`.`.`.`.'.'.'.'.'.'..X.X.XOXOX.X.XOXOXOXOXOX&X#X(.>.#.I &.*.-.-.-.-.-.&.&.&.&.&.&.&.&.#.#.I I I E i.d.d.d.d.d.",
"d.d.d.d.d.d.D.E.E.(.(.`.`.`.'.'.'.'.'.'.'..X.XOX.XOXOXOXOXOXOX#XOXE.2.&.#.&.-.-.-.-.-.&.&.&.&.&.&.&.&.#.I I I I I E i.d.d.d.d.d.",
"d.d.d.d.d.d.D.E.E.E.(.`.`.`.'.'.'.`.`.'.'..X.X.X.X.XOXOXOXOXOX.X'.r.8.-.&.&.-.-.=.=.&.&.&.&.&.&.&.&.&.#.I I I I I E i.d.d.d.d.d.",
"d.d.d.d.d.d.S.T.E.E.(.`.`.`.`.`.`.`.`.'.'..X.X.X.X.X.X.X.XOX.X.X(.r.8.-.-.=.-.&.&.&.&.&.#.&.&.&.&.&.&.#.I I I I I R i.d.d.d.d.d.",
"d.d.d.d.d.d.D.T.E.(.(.`.`.`.`.(.(.(.`.'.'.'.'..X.X.X.X.X.X.XXX'.r.q.q.>.&.&.&.&.&.&.&.&.#.I +.&.&.&.&.I I I I P K R i.d.d.d.d.d.",
"d.d.d.d.d.d.D.T.E.(.(.(.`.`.(.E.(.`.`.'.'.'.'.'..X.X.X.X.X.X'.(.r.q.q.3.&.&.&.&.&.&.&.&.#.I I I ` #.#.I I I I J L R i.d.d.d.d.d.",
"d.d.d.d.d.d.D.T.(.(.(.(.(.(.E.E.(.`.'.'.'.'.'.'..X'.'..X.X'.'./.q.q.q.8.&.&.&.&.&.&.&.&.#.` I I I I I I I I K J L Z i.d.d.d.d.d.",
"d.d.d.d.d.d.D.T.E.(.(.(.(.E.E.E.`.`.`.`.`.'.'.'.'.`.`..X.X.X(.q.8.3.q.q.-.&.&.&.&.&.&.&.#.` I I I I I I I I K L L Z i.d.d.d.d.d.",
"d.d.d.d.d.d.D.T.E.(.(.E.E.T.E.(.`.`.`.`.`.'.'.`.`._.`..X.X'.u.9.-.<.8.q.<.&.&.&.&.&.&.&.#.` I I I K I I I I I L L R i.d.d.d.d.d.",
"d.d.d.d.d.d.S.r.E./.r.r.r.T.(.(.(.(.`.`.`.`.`.`._._.`.'.'.(.r.8.I &.8.9.9.&.&.&.&.&.&.&.I +.I I I K K K I I K L L R i.d.d.d.d.d.",
"d.d.d.d.d.d.S.r.r.r.r.r.r.E.(.(.(.(.(.`.`._._.(.(._.`.'.'.r.w.;.n I 8.8.9.>.I I I &.&.#.I I I I I K L L L L L L L R i.d.d.d.d.d.",
"d.d.d.d.d.d.S.e.r.r.r.r.T.(.(.(.(.(.(.(.(.(.E.(.(.`..X'.r.w.t.D 5 Y 8.8.9.8.&.I I I I I I I I I I K L L L L L L L R i.d.d.d.d.d.",
"d.d.d.d.d.d.S.e.r.r.r.E.(.(.(.(.(.(.(.(.(.E.E.(._.`.'./.9.w.O.< 1 Y 6.3.<.8.>.I I I I I I I I I I I L L L L L L L Z i.d.d.d.d.d.",
"d.d.d.d.d.d.S.e.r.r.r.(.(.(.(.(.(.(.(.(.E.E.E.E._.'.(.q.8.t.r o 1 Y 8.3.<.8.8.>.I I I I I I I I I K K L L L L F L Z i.d.d.d.d.d.",
"d.d.d.d.d.d.S.e.r.r.r.(.(.(.(.(.(.(.(.E.E.E.T.(.`.(.e.3.e.X.+   1 Y <.3.<.3.8.3.&.I I I I I I I K L L L L L H L L R i.d.d.d.d.d.",
"d.d.d.d.d.d.S.e.r.r.r.r.r.r./.(.(.E.E.E.y.E.E.(.(.r.2.8.t.2     1 Y <.<.<.3.3.8.2.I L L L L I K L L L L L H H F S Z i.d.d.d.d.d.",
"d.d.d.d.d.d.S.e.e.r.r.r.r.r.(./.T.r.r.E.r.E.(.(.r.2.2.T.U o     8 P ,.<.2.3.3.3.8.>.I L L L L L L L L L H H H S S C i.d.d.d.d.d.",
"d.d.d.d.d.d.| e.0.r.r.r.r.T.r.r.r.r.r.E.E.E.(.r.2.2.T.5.-       8 J %.<.2.2.3.2.<.8.&.L L L L L L L L H H H H F S C i.d.d.d.d.d.",
"d.d.d.d.d.d.| 0.0.0.r.r.r.r.r.r.r.r.r.r.y.(.r.2.-.r.E.V         5 J *.<.>.2.2.>.>.>.8.&.L L L L L L L H H H S S S C i.d.d.d.d.d.",
"d.d.d.d.d.d.| 0.0.0.q.r.r.r.r.r.r.r.q.T.(.y.>.=.0._.o.%         5 G &.>.-.-.>.>.>.>.<.8.&.L L L H L L H S S S S A c i.d.d.d.d.d.",
"d.d.d.d.d.d.| 7.0.0.q.q.r.r.r.r.r.r.r.T.y.>.&.3.(.t.r           5 G @.>.-.-.>.>.>.>.>.8.6.I L H S H H S S S S S A x i.d.d.d.d.d.",
"d.d.d.d.d.d.| 7.0.0.0.0.0.r.e.e.r.r.E.e.>.#.3.(.E.U +           8 B I ;.-.-.>.>.>.>.>.>.8.>.I H S S S S S S S S m x i.d.d.d.d.d.",
"d.d.d.d.d.d.| 7.0.0.0.0.0.0.e.e.r.y.e.:.` 3.).'.5.<           . 8 B I ;.:.>.>.>.>.>.>.>.>.>.>.K S S M S S S M M m x i.d.d.d.d.d.",
"d.d.d.d.d.d.| 7.0.0.0.0.0.0.e.e.r.w.{ { q.).].E.V +           o 9 N I { =.>.>.>.>.>.>.-.-.-.>.>.K M M M S S M m z x i.d.d.d.d.d.",
"d.d.d.d.d.d.( 7.0.0.0.0.0.0.8.r.8.&.:.E.{.}.'.5.1 O o o o o X + 9 N I Y { >.>.>.>.-.-.-.=.&.=.>.>.L M M M M M m z i i.d.d.d.d.d.",
"d.d.d.d.d.d.( 7.0.0.0.0.0.0.r.8.&.e..X&X}.{.y.t # O O O O @ O $ 7 N J Y ` :.>.>.>.-.-.-.=.&.&.&.>.>.L M M M M m z i i.d.d.d.d.d.",
"d.d.d.d.d.d.( 7.8.8.8.0.0.r.0.r.#X*X%X#X{.`.{ & $ # # # # $ # & 0 b B I I &.&.=.=.&.=.=.&.=.&.#.&.>.>.L m M M m z i i.d.d.d.d.d.",
"d.d.d.d.d.d.( 6.8.8.8.0.r.'.*X3X*X*X$X#X'.e.6 $ % $ $ $ $ $ $ & q b N I K ` &.&.&.&.&.&.&.&.&.#.` &.>.6.L M m m z i p.d.d.d.d.d.",
"d.d.d.d.d.d.~ 6.8.8.r.e.>.#X3X3X*X$X$XXX_.D ; & & & & & & & & ; w e n K K I #.&.&.&.&.&.&.&.&.&.@.I @.-.>.@.L M z u s.d.d.d.d.d.",
"d.d.d.d.d.d.~ 0.r.e.0.:._ 6.&X1X&X#X].].;.9 * = = = 4 4 4 3 ; 5 w e w L K I +.&.I I &.&.&.&.&.&.&.Y I I ;.>.:.Y H g s.d.d.d.d.d.",
"d.d.d.d.d.d.~ 7.8.>.=.&.&.I e.OXOXOX[.7.l : : , , : : , > > : 5 n e w L I I Y Y Y Y Y @.@.Y I I { { K K K { :.:.{ g s.d.d.d.d.d.",
"d.d.d.d.d.d.g.' } &.&.+.+.+.` 2.E.!.A.l.f p a a a p p a a y d y v m k v ) K K Y Y Y Y Y Y Y I P I Y I I K K I { [ h d.d.d.d.d.d.",
"d.d.d.d.d.d.d.g.~ Q Q ' ' ' W / M.n.k.s.s.s.s.s.s.s.s.s.s.a.s.a.f.h h f.z.l.l.l.l.~ / / / W W Q Q Q Q W W W W T j s.d.d.d.d.d.d.",
"d.d.d.d.d.d.d.d.d.d.d.d.d.d.d.d.d.d.d.d.d.d.d.d.d.d.d.d.d.d.d.d.d.d.d.d.d.d.d.d.d.d.d.d.d.d.d.d.d.d.d.d.d.d.d.d.d.d.d.d.d.d.d.d.",
"d.d.d.d.d.d.d.d.d.d.d.d.d.d.d.d.d.d.d.d.d.d.d.d.d.d.d.d.d.d.d.d.d.d.d.d.d.d.d.d.d.d.d.d.d.d.d.d.d.d.d.d.d.d.d.d.d.d.d.d.d.d.d.d.",
"d.d.d.d.d.d.d.d.d.d.d.d.d.d.d.d.d.d.d.d.d.d.d.d.d.d.d.d.d.d.d.d.d.d.d.d.d.d.d.d.d.d.d.d.d.d.d.d.d.d.d.d.d.d.d.d.d.d.d.d.d.d.d.d.",
"d.d.d.d.d.d.d.d.d.d.d.d.d.d.d.d.d.d.d.d.d.d.d.d.d.d.d.d.d.d.d.d.d.d.d.d.d.d.d.d.d.d.d.d.d.d.d.d.d.d.d.d.d.d.d.d.d.d.d.d.d.d.d.d."
};
