/* XPM */
static char *exit[] = {
/* columns rows colors chars-per-pixel */
"64 64 209 2 ",
"   c #030102",
".  c #0C0502",
"X  c #140B04",
"o  c #190C04",
"O  c #1C1105",
"+  c #1B150B",
"@  c #220F03",
"#  c #211004",
"$  c #2A1505",
"%  c #2A1908",
"&  c #321A09",
"*  c #3B1D08",
"=  c #281B11",
"-  c #3A2D05",
";  c #372A08",
":  c #382B0F",
">  c #421C0B",
",  c #513108",
"<  c #462E15",
"1  c #40361E",
"2  c #6E370F",
"3  c #6C3F1A",
"4  c #743D13",
"5  c #4D3B24",
"6  c #1A4F05",
"7  c #035E05",
"8  c #135107",
"9  c #12510A",
"0  c #1C590C",
"q  c #314F07",
"w  c #255710",
"e  c #2C5812",
"r  c #355A18",
"t  c #3B5D1A",
"y  c #036205",
"u  c #036308",
"i  c #026D0B",
"p  c #0A6A08",
"a  c #18690B",
"s  c #017307",
"d  c #017907",
"f  c #09730C",
"g  c #027E0D",
"h  c #097C0E",
"j  c #13790F",
"k  c #1C6C11",
"l  c #0D7712",
"z  c #047E10",
"x  c #0B7A11",
"c  c #147612",
"v  c #137D15",
"b  c #187A17",
"n  c #1B7D16",
"m  c #1C7D19",
"M  c #23690D",
"N  c #256D14",
"B  c #386819",
"V  c #227717",
"C  c #2E731B",
"Z  c #257B1C",
"A  c #297D1C",
"S  c #32751E",
"D  c #347A1D",
"F  c #337620",
"G  c #3C7222",
"H  c #554A15",
"J  c #415F1C",
"K  c #56561A",
"L  c #5B521C",
"P  c #67471D",
"I  c #6A4B1F",
"U  c #724312",
"Y  c #794F1B",
"T  c #43671D",
"R  c #5E4624",
"E  c #5E4C24",
"W  c #57462C",
"Q  c #5D5120",
"!  c #5F4F37",
"~  c #644121",
"^  c #6C4D22",
"/  c #714F25",
"(  c #635222",
")  c #6E5024",
"_  c #6E542A",
"`  c #795625",
"'  c #765827",
"]  c #745529",
"[  c #78572A",
"{  c #7C5C2C",
"}  c #604C35",
"|  c #7C5D31",
" . c #745D38",
".. c #446F25",
"X. c #4D6C24",
"o. c #526D24",
"O. c #5C6E27",
"+. c #447727",
"@. c #4F7527",
"#. c #6D642E",
"$. c #70602E",
"%. c #7D612E",
"&. c #756A2E",
"*. c #65762E",
"=. c #60792E",
"-. c #656C30",
";. c #736232",
":. c #7D6232",
">. c #7D6636",
",. c #687A32",
"<. c #787739",
"1. c #7D6644",
"2. c #82451A",
"3. c #854422",
"4. c #815E2E",
"5. c #825F33",
"6. c #8B622E",
"7. c #92652E",
"8. c #846432",
"9. c #896635",
"0. c #856934",
"q. c #896936",
"w. c #856539",
"e. c #846A3A",
"r. c #8C6C3A",
"t. c #916E3B",
"y. c #966C39",
"u. c #84753D",
"i. c #8E713C",
"p. c #86793C",
"a. c #92723D",
"s. c #98713E",
"d. c #8D6E40",
"f. c #846E4D",
"g. c #8D7242",
"h. c #8C7A44",
"j. c #8D724A",
"k. c #947442",
"l. c #9A7643",
"z. c #9A7A45",
"x. c #987749",
"c. c #957B49",
"v. c #9B7C4B",
"b. c #957B53",
"n. c #9A7D51",
"m. c #A97F58",
"M. c #00810D",
"N. c #0A800C",
"B. c #028210",
"V. c #0C8214",
"C. c #068811",
"Z. c #1C801C",
"A. c #20851C",
"S. c #278224",
"D. c #398427",
"F. c #35912E",
"G. c #49842C",
"H. c #4F8633",
"J. c #598738",
"K. c #49933B",
"L. c #68863F",
"P. c #5C9041",
"I. c #688E45",
"U. c #669445",
"Y. c #76934D",
"T. c #82803E",
"R. c #898647",
"E. c #91814B",
"W. c #9E814E",
"Q. c #948A4F",
"!. c #81924E",
"~. c #9E8252",
"^. c #9A8D57",
"/. c #899755",
"(. c #9C935B",
"). c #A4834E",
"_. c #A58857",
"`. c #AA8851",
"'. c #A68A5A",
"]. c #B38F5B",
"[. c #A3915B",
"{. c #AC915D",
"}. c #B3945D",
"|. c #80A057",
" X c #94A25E",
".X c #AB8E61",
"XX c #AD8E68",
"oX c #B58E61",
"OX c #AD9263",
"+X c #A39A64",
"@X c #AD9A67",
"#X c #B09366",
"$X c #B79765",
"%X c #B29569",
"&X c #BB966D",
"*X c #B39A6C",
"=X c #BA9B6C",
"-X c #AC9E71",
";X c #B99C72",
":X c #B99D72",
">X c #95A769",
",X c #A8A06C",
"<X c #B1A36F",
"1X c #B3A675",
"2X c #BBA275",
"3X c #C29D6F",
"4X c #C09E78",
"5X c #C5A475",
"6X c #C3A27D",
/* pixels */
"M.M.M.M.M.M.M.M.M.M.M.M.M.M.M.M.M.M.M.M.M.M.M.M.M.M.M.M.M.M.M.M.M.M.M.M.M.M.M.M.M.M.M.M.M.M.M.M.M.M.M.M.M.M.M.M.M.M.M.M.M.M.M.M.",
"M.M.M.M.M.M.M.M.M.M.M.M.M.M.M.M.M.M.M.M.M.M.M.M.M.M.M.M.M.M.M.M.M.M.M.M.M.M.M.M.M.M.M.M.M.M.M.M.M.M.M.M.M.M.M.M.M.M.M.M.M.M.M.M.",
"M.M.M.M.M.M.M.M.M.M.M.M.M.M.M.M.M.M.M.M.M.M.M.M.M.M.M.M.M.M.M.M.M.M.M.M.M.M.M.M.M.M.M.M.M.M.M.M.M.M.M.M.M.M.M.M.M.M.M.M.M.M.M.M.",
"M.M.M.M.M.M.M.M.M.M.M.M.M.M.M.M.M.M.M.M.M.M.M.M.M.B.M.M.M.M.M.M.M.M.M.M.M.M.M.M.M.B.M.M.M.M.M.M.M.M.M.M.M.M.M.M.M.M.M.M.M.M.M.M.",
"M.M.M.M.M.M.M.M.M.M.M.M.M.M.M.M.M.M.M.M.M.M.M.M.M.B.M.M.M.M.M.M.M.M.M.M.M.M.M.M.M.B.M.M.M.M.M.g M.M.M.M.M.M.M.M.M.M.M.M.M.M.M.M.",
"M.M.M.M.M.C.M.M.M.M.M.M.M.M.M.g M.M.M.g g M.M.M.M.M.M.M.M.M.M.M.M.M.M.M.M.M.M.M.M.M.M.M.M.g g g g g g g g M.M.M.M.M.M.M.M.M.M.M.",
"M.M.M.M.M.C.M.M.M.M.M.M.M.M.M.M.M.M.M.g M.M.M.M.g g g M.M.M.M.M.M.M.M.C.M.M.M.M.M.M.M.M.M.M.M.M.M.M.M.M.M.M.M.M.M.M.M.M.M.M.M.M.",
"M.M.M.M.M.B.M.M.M.M.M.M.M.M.M.M.M.g g M.M.M.g g g f f g g g g f f g g g d d d g g g g g g g g g g g g g g g g g M.M.g M.M.M.M.M.",
"M.M.M.M.M.M.M.M.M.M.M.M.M.M.M.M.M.g g M.M.g g g g f f f f f f f f f f f s f f f f f f f f f f f f f f f i f f s g M.g M.M.M.M.M.",
"M.M.M.M.M.M.M.M.M.M.M.M.M.M.M.M.g g g g g g g M.g f f f f f i i i f f f f f f f f f f i i i i i i i f f i i i f g M.M.M.M.M.M.M.",
"M.M.M.M.M.M.M.M.M.M.M.M.M.M.M.g g g g g g g M.M.g i y y y y y y y y y y y y y y y u u 7 7 7 7 7 7 y y u y y y f g M.g g M.M.M.M.",
"M.M.M.M.M.M.M.M.M.M.M.M.M.M.M.g g g g g M.g M.M.f k t J t t t t t t t t r r r r t t r r r r e e e w w 0 0 0 0 p g M.M.g M.M.M.M.",
"M.M.M.M.M.M.M.M.M.M.M.M.M.M.M.g g g g M.M.M.M.g n o.#.>.{ { [ [ [ [ [ [ [ ] _ _ _ _ _ ) ( ( ( Q Q L L L E ;.-.B f M.M.M.M.M.M.M.",
"M.M.M.M.M.M.M.M.M.M.M.M.M.M.M.g g g g M.g M.M.v @.%.%.{ { { { { [ ` ] ] ] ] ] ] ] / / ^ ^ ^ ^ I I ^ P I [ g.>.B f M.M.M.M.M.M.M.",
"M.M.M.M.M.M.M.M.M.M.M.M.M.M.M.g g g g g M.M.V.+.&.%.4.8.%.{ { { { { { { ] ] ] ] ] ] ) ) ^ ^ ^ ^ I I I ^ e.e.{ T x M.M.M.M.M.M.M.",
"M.M.M.M.M.M.M.M.M.M.M.M.M.M.M.g g g g g M.M.D &.6.>.8.8.6.{ { { { { { { [ ] ] ] ] ] ) ] ) ^ ^ ^ I I I 5.r.;.[ X.x M.M.M.M.M.M.M.",
"M.M.M.M.M.M.M.M.M.M.B.M.M.M.M.M.M.M.M.M.M.v *.6.6.9.8.8.8.{ 6.6.%.{ { { [ ] ] ] ] ] ] ] ) ^ ^ I I I { d.8.[ { X.l M.M.M.M.M.M.M.",
"M.M.M.M.M.M.M.M.M.M.M.M.M.M.M.M.M.g M.B.x @.0.9.9.0.8.8.8.8.8.8.8.%.{ { [ ] [ [ ] ] ] ] ] ) ^ I I ' r.q.{ { { X.l M.M.M.M.M.M.M.",
"M.M.M.M.M.M.M.M.M.M.M.M.M.M.M.g M.M.M.z G <.q.q.0.0.9.9.8.8.8.8.8.%.{ { { { { { ] ] ] ] ] ) ^ I ' i.r.5.| >.>.X.l M.M.M.M.M.M.M.",
"M.M.M.M.M.M.M.M.M.M.M.M.M.M.M.M.M.g g A <.r.r.q.0.q.9.9.8.8.8.8.%.{ { { { { { { [ ] [ ] ) ) ^ [ r.r.6.8.8.>.{ X.l M.M.M.M.M.M.M.",
"M.M.M.M.M.M.M.M.M.M.M.M.M.M.M.M.M.g n ,.u.t.t.r.r.q.9.9.8.8.8.8.{ { { { { { { { { { ] ] ] ) { r.r.8.6.8.8.| { X.l M.M.g M.M.M.M.",
"M.M.M.g M.M.M.M.M.g g M.B.M.M.M.B.V =.i.i.t.t.r.r.q.q.q.8.8.8.6.{ { 6.%.{ { { { { [ ] ] ] { i.r.8.8.0.8.8.| | ..l g M.M.M.M.M.M.",
"M.M.M.g M.M.M.M.M.M.M.M.g z B.B.n =.p.i.t.t.r.r.r.r.q.q.q.8.8.6.6.6.6.6.6.{ { { { ] ] ] 8.k.r.q.q.q.q.0.8.5.| ..h M.M.M.M.M.M.M.",
"M.M.M.M.M.M.M.M.M.M.M.M.g z z Z =.p.a.a.a.t.r.r.r.r.r.r.q.8.8.8.8.8.8.8.8.%.{ { { ] ] 8.k.a.r.r.q.q.q.0.9.w.| ..x g M.M.M.M.M.M.",
"M.M.M.M.M.g g g M.M.M.g B.M.Z ,.a.a.a.a.a.t.t.t.r.r.r.q.q.q.8.8.8.8.8.8.8.6.{ { [ { r.k.a.r.r.r.q.q.0.0.8.| | ..x g M.M.M.M.M.M.",
"M.M.M.M.M.M.g g M.M.M.B.z A ,.x.s.s.i.a.a.a.t.t.r.r.r.q.q.q.q.8.8.8.8.8.8.6.{ { { a.k.a.r.r.r.r.r.r.0.8.{ | ;.G g g M.M.M.M.M.M.",
"M.M.M.M.M.M.M.M.g g g z F <.x.x.k.k.a.k.k.a.a.t.r.r.r.r.q.q.0.8.8.8.8.8.8.{ { 8.k.k.a.r.i.r.r.r.r.r.r.8.4.| ;.G g M.g M.M.M.M.M.",
"g M.M.M.M.M.M.M.M.h v D.T.z.l.l.h.k.k.k.a.a.t.r.r.r.r.r.q.q.q.q.8.8.8.8.8.4.r.l.k.a.a.i.i.r.r.r.r.r.e.8.8.| ;.G g M.g g M.M.M.M.",
"M.M.M.g M.M.M.M.g n G.h.x.a.s.a.i.i.r.r.r.r.q.9.9.9.9.8.8.0.q.q.9.8.8.8.8.k.l.k.a.a.a.i.i.r.r.r.r.r.8.%.{ | ;.F g g g g M.M.M.M.",
"M.M.M.x M.M.M.g A =.u.r.q.8.9.8.8.8.8.8.8.8.6.6.6.6.6.%.6.6.q.q.9.q.r.k.l.l.s.a.a.a.i.i.a.r.r.e.8.>.%.[ [ { #.C g g g M.M.M.M.M.",
"M.M.M.M.M.M.N.D *.>.8.8.8.8.0.r.r.r.r.r.r.r.0.0.0.8.8.8.8.q.r.a.a.l.z.z.l.k.k.a.a.a.t.t.r.r.w.>.>.| { [ ] ] K k M.M.M.M.M.M.M.M.",
"M.M.M.M.g v +.<.i.g.v.v.~._.'.'.'.'.'.'.'.'.'._._.~.v.k.k.k.z.z.z.z.l.k.k.k.g.g.t.t.7.6.4.4.{ ` ` Y U U 4 2 H a g M.M.M.M.g g M.",
"M.M.M.M.m L.(.XX%X*X<X2X2X2X2X2X2X2X2X2X2X:X:X:X2X*X*XOX.X'.~.v.z.z.a.{ I R W W R ~ P 3 3 3 3 4 4 4 2.2.3.3.L M h g g M.M.B.g g ",
"M.M.M.M.A  X4X6X6X6X1X2X2X2X2X:X:X:X:X:X*X*X*X*X*X*X*X%X%X#XOX'.).z.z.a.| < # o X o o o O O O % % * ; < , , q p g M.M.M.B.B.z g ",
"M.M.M.M.x K.>X2X:X2X:X:X:X:X:X:X:X:X:X*X*X*X*X*X*X*X%X%X%XOX#X#X}.'._.v.v.j.} = .             . X @ $ & ; - 6 i g M.M.g M.g g M.",
"M.M.M.M.g V.F.|.<X:X:X:X:X:X:X:X:X:X*X*X*X*X*X*X%X%X#XOXOXOXOXOXOXOX.X'.n.c.b.f.W +           . o @ $ & > - 6 p g M.g g M.M.M.M.",
"M.M.M.M.M.M.N.A.U.,X:X:X:X:X:X:X:X:X*X*X*X*X%X%X%X#X#XOXOXOXOXOX.X.X.X.X'.).l.l.n.1.1 X       . X # $ & > ; 9 i g M.M.M.M.M.M.M.",
"M.M.M.M.M.M.M.M.v H. X=X:X:X:X-X-X*X&X%X*X%X%X%X%X#X#XOXOXOXOXOXOX.X.X.X.X'._.z.k.c.~. .: .     X O $ & > - 8 i g M.B.M.M.M.M.M.",
"M.M.M.M.g g M.M.M.j G./.<X:X:X:X:X*X%X%X%X%X%X%X%X#X#XOXOXOXOXOXOX.X'._.'..X.X'.v.i.k._.b.! = . X # $ & > - 8 i g M.B.g M.M.M.M.",
"M.M.M.M.g h M.M.M.M.h S.Y.@X&X&X&X%X*X%X%X%X%X%X#X#X#XOXOXOXOX.XOXOX'._._._.'.'.'.W.i.i._.'.f.5 $ @ $ & * ; 9 i g M.M.g M.M.M.M.",
"M.M.M.M.g h g M.M.M.M.z Z.I.@X&X&X&X*X%X%X%X%X%X#XOXOXOXOXOXOX.XOX.X.X'._._._._._._.W.q.q.).'._.1.< & & * ; 9 i g M.M.M.M.M.M.M.",
"M.M.M.M.M.g g g M.M.M.g g m I.@X%X%X%X%X%X%X#X#XOXOXOXOXOX.X.X.X.X.X'.'.'._.~.~.~._._.v.q.q.).].'.n._ < * - 9 i z M.M.M.M.M.M.M.",
"M.M.M.M.M.g g h g g g g g g v P.+X*X%X%X#X#X#XOXOXOXOXOXOXOXOX.X'.'.'.'.'._.~.~.~.~.~._.n.r.9.`.}.{._.j.~ - 8 i z M.M.M.M.M.M.M.",
"M.M.M.M.M.M.M.g g g M.M.M.g g v P.+X%X%X#X#X#XOXOXOXOXOXOX.X.X'.'.'.'.'.'.'._.~.~.~.~.~._.v.8.e.'.@X}.#Xm.$.0 i g M.M.M.M.M.M.M.",
"M.M.M.g M.M.M.M.M.M.M.M.B.g g g v I.OX%XOX#X#XOXOXOXOXOX.X'.'.'.'.'.'.'.'.'._._.~.~.~.W.W.~.b.>.j.=X#X#XoX[.H.p g M.M.M.M.M.M.M.",
"M.M.M.M.M.M.M.M.M.M.M.M.M.M.M.M.g m U.+XOX#X#XOXOX.XOXOX'.'.'.'.'.'.'.'._._._._._.v.v.v.v.v.~.c.>._.=X&X=X@X!.N g M.M.M.M.M.M.M.",
"M.M.M.M.M.M.M.M.M.M.M.M.B.M.M.M.g h n I.OXOXOXOXOX.X.X'.'.'.'._._._.'.'._._._._._._.v.v.v.v.v.v.k.g.=X3X*X*XQ.B g M.g M.M.M.M.M.",
"M.M.M.M.M.M.M.M.M.M.M.B.B.M.M.M.M.g h Z Y.OXOX.X.XOX.X'.'.'.'.'._.~._._._._._._._._.W.v.v.v.c.v.v.k.OX5X2XOX0.T x B.g g M.M.M.M.",
"M.M.M.M.M.M.M.g g M.M.M.B.M.M.M.M.g g z S.!.{.{..XOX.X'.'.'.'.'._.~.~._._._._._._._._.v.v.v.c.v.x.v._.5XOXr.{ o.c M.M.g M.M.M.M.",
"g g M.M.M.M.M.M.M.M.M.M.M.M.M.M.M.M.M.B.B.D.Q.].{.'.'.'.'.'.'.'.'._.~.W.W._._._.W.v.W.W.v.v.v.x.x.x.v.W.>.>.6.O.c B.M.M.g M.M.M.",
"M.M.M.M.M.M.M.M.M.M.M.M.M.M.M.M.M.M.M.g B.B.G.^.[.[.'.'.'.'.'.'.'._._.W.v.W._._.W.v.v.v.v.v.x.x.x.x.x.c.e.8.8.O.c B.M.M.M.M.M.M.",
"M.M.M.M.M.M.M.M.M.M.M.M.M.M.M.M.M.M.M.M.M.M.v J.^.(.'.'.'._.'.'.'._._._.v.v.v.W.v.v.v.v.v.z.x.x.x.x.k.v.c.0.8.O.c B.M.M.M.M.M.M.",
"M.M.M.M.M.M.M.M.M.M.M.M.M.M.M.M.g M.M.M.M.g z m L._.'.'._.~._._.'.'._._.v.v.v.v.v.v.v.z.x.x.x.x.x.x.x.k.c.g.8.o.l B.M.M.M.M.M.M.",
"M.M.M.M.M.M.M.M.M.M.M.M.M.M.M.M.M.M.M.M.M.g M.z F R._._._.~.~.~.~.~.~.~.W.v.v.v.v.v.c.c.x.x.x.x.x.x.x.k.v.x.&.B f B.M.M.M.M.M.M.",
"M.M.M.M.M.M.M.M.M.M.M.M.M.M.M.M.M.M.M.M.M.g M.B.c H.R.E.E.E.E.E.E.E.E.c.c.h.h.h.h.h.h.h.h.p.p.u.u.u.u.<.<.<.X.a g M.M.M.M.M.M.M.",
"M.M.M.M.M.M.M.M.M.M.M.M.M.M.M.M.M.M.M.M.M.g M.B.g n S S F F F F S S S S S S S S S S S S C C C C C C C N N N a f M.M.M.M.M.M.M.M.",
"M.M.M.M.M.M.M.M.M.M.M.M.M.M.M.M.M.M.M.M.M.g M.M.M.z x g g g g g g g g g g g g g g g g g g g g g g z z g g g g M.M.M.g g M.M.M.M.",
"M.M.M.M.M.M.M.M.M.M.M.M.M.M.M.M.M.M.M.M.M.M.M.M.M.M.B.M.M.M.M.M.M.M.M.M.M.M.M.M.M.M.M.M.M.M.M.M.M.M.M.M.M.M.M.M.M.M.g g M.M.M.M.",
"M.M.M.M.M.M.M.M.M.M.M.M.M.M.M.M.M.M.M.M.M.M.M.g M.M.M.M.M.M.M.M.M.M.M.M.M.M.M.M.M.M.M.M.M.M.M.M.M.M.M.M.M.M.M.M.M.M.g M.M.M.M.M.",
"M.M.M.M.M.M.M.M.M.M.M.M.M.M.M.M.M.M.M.M.M.M.M.M.g g M.M.M.M.M.M.M.M.M.M.M.M.M.M.M.M.M.M.M.M.M.M.M.M.M.M.M.M.M.g g g M.M.M.M.M.M.",
"M.M.M.M.M.M.M.M.M.M.M.M.M.M.M.M.M.M.M.M.M.M.M.M.M.M.M.M.M.M.M.M.M.M.M.M.M.M.M.M.M.M.M.M.M.M.M.M.M.M.M.M.M.M.M.B.z B.B.M.M.M.M.M.",
"M.M.M.M.M.M.M.M.M.M.M.M.M.M.M.M.M.M.M.M.M.M.M.M.M.M.M.M.M.M.M.M.M.M.M.M.M.M.M.M.M.M.M.M.M.M.M.M.M.M.M.M.M.M.M.M.M.M.M.M.M.M.M.M.",
"M.M.M.M.M.M.M.M.M.M.M.M.M.M.M.M.M.M.M.M.M.M.M.M.M.M.M.M.M.B.M.M.M.M.M.M.M.M.M.M.M.M.M.M.M.M.M.M.M.M.M.M.M.M.M.M.M.M.M.M.M.M.M.M.",
"M.M.M.M.M.M.M.M.M.M.M.M.M.M.M.M.M.M.M.M.M.M.M.M.M.M.M.M.B.B.M.M.M.M.M.M.M.M.M.M.M.M.M.M.M.M.M.M.M.M.M.M.M.M.M.M.M.B.B.M.M.M.M.M."
};
