/* XPM */
static char *prince[] = {
/* columns rows colors chars-per-pixel */
"64 64 180 2 ",
"   c #007D0C",
".  c #097F14",
"X  c #2A7E2F",
"o  c #3C7C3B",
"O  c #645451",
"+  c #6A5754",
"@  c #496C43",
"#  c #4D7C46",
"$  c #557A4C",
"%  c #656658",
"&  c #75665D",
"*  c #6E755C",
"=  c #7E6663",
"-  c #A97F55",
";  c #BA7D5B",
":  c #816D68",
">  c #C57B5D",
",  c #00800D",
"<  c #028A0A",
"1  c #049109",
"2  c #058212",
"3  c #0A8314",
"4  c #0D8A16",
"5  c #0C851A",
"6  c #11851A",
"7  c #18841A",
"8  c #1C8425",
"9  c #158B22",
"0  c #198C23",
"q  c #1B8E2B",
"w  c #1E902D",
"e  c #298A28",
"r  c #35862B",
"t  c #348C29",
"y  c #2B942F",
"u  c #2A8B34",
"i  c #308333",
"p  c #229232",
"a  c #289231",
"s  c #2F983E",
"d  c #339635",
"f  c #3B953C",
"g  c #41852E",
"h  c #4C8836",
"j  c #598738",
"k  c #64893E",
"l  c #349C47",
"z  c #3D9A43",
"x  c #479D4A",
"c  c #499C5A",
"v  c #6F8A47",
"b  c #6F954F",
"n  c #4DA349",
"m  c #45A559",
"M  c #48A65D",
"N  c #5AA85E",
"B  c #6AB05D",
"V  c #679D77",
"C  c #46A660",
"Z  c #4CA966",
"A  c #52AD68",
"S  c #5FB479",
"D  c #66AA62",
"F  c #72AF6B",
"G  c #6CB060",
"H  c #72B367",
"J  c #67AB7E",
"K  c #79B776",
"L  c #93874F",
"P  c #8A8C53",
"I  c #8A8C54",
"U  c #978553",
"Y  c #A68258",
"T  c #B4885A",
"R  c #8A9661",
"E  c #A18D61",
"W  c #A89A65",
"Q  c #B98F71",
"!  c #82B376",
"~  c #83B970",
"^  c #DE8A65",
"/  c #D8906D",
"(  c #C99978",
")  c #D39470",
"_  c #E08965",
"`  c #E0906E",
"'  c #8EC17C",
"]  c #93C17C",
"[  c #7B9F8C",
"{  c #6AAE80",
"}  c #75AB89",
"|  c #6BBA84",
" . c #6FBC8A",
".. c #73C08F",
"X. c #77C295",
"o. c #A39790",
"O. c #98B68D",
"+. c #81AA95",
"@. c #86B39C",
"#. c #8CB89F",
"$. c #B7A787",
"%. c #A1B89D",
"&. c #8ABCA3",
"*. c #8ABFA8",
"=. c #9DBDA7",
"-. c #97BEBB",
";. c #98BEBC",
":. c #B5AAA0",
">. c #ACB4A0",
",. c #E6BB9F",
"<. c #9CC287",
"1. c #87C299",
"2. c #A6CA8C",
"3. c #AAC898",
"4. c #B2CE93",
"5. c #B6D199",
"6. c #BDD59C",
"7. c #8AC2A6",
"8. c #85CAA5",
"9. c #8DCAAD",
"0. c #94C4A9",
"q. c #90C9AE",
"w. c #8ECCB3",
"e. c #93CFB4",
"r. c #96C8B8",
"t. c #8FD0B2",
"y. c #93D1B6",
"u. c #9BD3B3",
"i. c #94D2B8",
"p. c #A8C9AA",
"a. c #BCCBA9",
"s. c #A8D5A8",
"d. c #A2C2BE",
"f. c #B9CAB4",
"g. c #A9D6B7",
"h. c #A3D4BB",
"j. c #CDC5A8",
"k. c #CAD9A5",
"l. c #D1DDA8",
"z. c #C2CAB1",
"x. c #D6C8B7",
"c. c #C1D0B9",
"v. c #C6DFBD",
"b. c #CBD9BB",
"n. c #DED0BF",
"m. c #E3C1A8",
"M. c #E8CFB8",
"N. c #E6D7B6",
"B. c #E5D4BB",
"V. c #D9E1B1",
"C. c #E6E6B9",
"Z. c #E8E5BE",
"A. c #99C6C2",
"S. c #96D3C2",
"D. c #9CD6CA",
"F. c #9FD8D1",
"G. c #A0D1CE",
"H. c #B7D9CC",
"J. c #A2D5D3",
"K. c #A0D8D1",
"L. c #A5DBDA",
"P. c #C4DBC4",
"I. c #CDD6C8",
"U. c #DBD2C5",
"Y. c #D5DACC",
"T. c #D8DECA",
"R. c #D6DFD4",
"E. c #E8DDC8",
"W. c #CAE2C0",
"Q. c #DDE0CC",
"!. c #C5E5DA",
"~. c #DFE1D4",
"^. c #EBE5C4",
"/. c #E7E2CE",
"(. c #E3E1D4",
"). c #EEE3D1",
"_. c #F1E4D1",
"`. c #DAECE0",
"'. c #EEF1E1",
"]. c #F2F6E4",
/* pixels */
", , , , , , , , , , , , , , , , , , , , , , , , , , , , , , , , , , , , , , , , , , , , , , , , , , , , , , , , , , , , , , , , ",
", , , , , , , , , , , , , , , , , , , , , , , , , , , , , , , , , , , , , , , , , , , , , , , , , , , , , , , , , , , , , , , , ",
", , , , , , , , , , , , , , , , , , , , , , , , , , , , , , , , , , , , , , , , , , , , , , , , , , , , , , , , , , , , , , , , ",
", , , , , , , , , , , , , , , , , , , , , , , , , , , , , , , , , , , , , , , , , , , , , , , , , , , , , , , , , , , , , , , , ",
", , , , , , , , , , , , , , , , , , , , , , , , , , , , , , , , , , 3 n 2.l.l.6.H 0 , , , , , , , , , , , , , , , , , , , , , , ",
", , , , , , , , , , , , , , , , , , , , , , , , , , , , ,           G C.C.C.C.C.C.k.B n 2 , , , , , , , , , , , , , , , , , , , ",
", , , , , , , , , , , , , , , , , , , , , , , , , , , , ,       e ] C.C.C.C.C.C.C.C.C.' , , , , , , , , , , , , , , , , , , , , ",
", , , , , , , , , , , , , , , , , , , , , , , , , , ,         6 V.C.C.C.C.C.C.C.C.C.C.6.2 , , , , , , , , , , , , , , , , , , , ",
", , , , , , , , , , , , , , , , , , , , , , , , , , ,         ~ C.C.C.C.C.C.C.^.^.^.C.V.y , , , , , , , , , , , , , , , , , , , ",
", , , , < , , , , < , , , , , , , , , , , , , , , , ,         4.C.C.C.C.C.C.Z._._._._.5.4.H , , , , , , , , , , , , , , , , , , ",
", , , < 1 1 , , 1 1 , , , , , , , , , , , , , , , , , ,       5.C.C.C.C.C.C.^._.n.x./.F , , , , , , , , , , , , , , , , , , , , ",
", , < < < < < < < < < < , , , , , , , , , , , , , , , , ,     H C.C.C.N.B./._._.E.(.).!   , , , , , , , , , , , , , , , , , , , ",
", , < < < < < < < < < < , , , , , , , , , , , , , , , , ,     d C.C.C.M.M._._._._.R.).!   , , , , , , , , , , , , , , , , , , , ",
", , , , , , , , , , , , , , , , , , , , , , , , , , , , , , , d ] C.C.C.E._._._._._._.j.6 , , , , , , , , , , , , , , , , , , , ",
", , , , , , , , , , , , , , , , , , , , , , , , , , , , , , , , 0 k.C.^._._._._._._._.D , , , , , , , , , , , , , , , , , , , , ",
", , , , , , , , , , , , , , , , , , , , , , , , , , , , , , , , , y <.)._._._._._.).b.x , , , , , , , , , , , , , , , , , , , , ",
", , , , , , , , , , , , , , , , , , , , , , , , , , , , , , , ,     f B._._._._._._./.9 , , , , , , , , , , , , , , , , , , , , ",
", , , , , , , , , , , , , , , , , , , , , , , , , , , , , , , , k L W ,.m.B.3.a.E./.K , , , , , , , , , , , , , , , , , , , , , ",
", , , , , , , , , , , , , , , , , , , , , , , , , , , , , , , t _ _ _ _ _ ` b 6 3 6 , , , , , , , , , , , , , , , , , , , , , , ",
", , , , , , , , , , , , , , , , , , , , , , , , , , , , , , , j _ _ ^ ^ _ ^ ^ T 2 , , , , , , , , , , , , , , , , , , , , , , , ",
", , , , , , , , , , , , , , , , , , , , , , , , , , , , , , , R ) ( $.( ^ _ ^ T 2 , , , , , , , , , , , , , , , , , , , , , , , ",
", , , , , , , , , , , , , , , , , , , , , , , , , , , , , , 6 O.0.9.9.0.$.) / b , , , , , , , , , , , , , , , , , , , , , , , , ",
", , , , , , , , , , , , , , , , , , , , , , , , , , , , , 3 L %.9.9.9.9.q.y.u.0 , , , , , , , , , , , , , , , , , , , , , , , , ",
", , , , , , , , , , , , , , , , , , , , , , , , , , , , , k > 0.9.9.9.9.9.i.g.0 , , , , , , , , , , , , , , , , , , , , , , , , ",
", , , , , , , , , , , , , , , , , , , , , , , , , < < 3 j ; Q q.9.9.9.9.9.e.i.0 , , , , , , , , , , , , , , , , , , , , , , , , ",
", , , , , , , , , , , , , , , , , , , , , , , , < < 4 v > > %.9.9.9.9.0.9.e.e.c , , , , , , , , , , , , , , , , , , , , , , , , ",
", , , , , , , , , , , , , , , , , , , , , ,     , t U > > R y.9.9.9.9.9.9.e.e.} 5 , , , , , , , , , , , , , , , , , , , , , , , ",
", , , , , , , , , , , , , , , , , , , , , , 3 e P > > ; v M e.9.9.9.9.9.9.e.e.@.u , , , , , , , , , , , , , , , , , , , , , , , ",
", , , , , , , , , , , , , , , , , , 5 f h P - > > > ; r ,  .9.9.9.9.9.9.q.u.e.@.c , , , , , , , , , , , , , , , , , , , , , , , ",
", , , , , , , , , , , , , , , , , , E > > > > > > P 7   p 7.@.@.@.&.&.&.q.y.w.+.} u , , , , , , , , , , , , , , , , , , , , , , ",
", , , , , , , , , , , , , , , , , , g > > > > T r ,     ..9.@.@.@.@.@.@.@.y.9.[ [ c , , , , , , , , , , , , , , , , , , , , , , ",
", , , , , , , , , , , , , , , , , , 2 j Y L h 2 , ,   q w.e.q.f.=.#.@.@.9.y.*.[ V 5 , , , , , , , , , , , , , , , , , , , , , , ",
", , , , , , , , , , , , , , , , , , , , , , , , , , , A y.y.i.).).g.e.y.y.s.1.9 , , , , , , , , , , , , , , , , , , , , , , , , ",
",           , , , , , , , , , , , , , , , , , , , , 9 9.i.i.i./.).h.i.i.i.u.p., , , , , , , , , , , , , , , , , , , , , , , , , ",
"            , , , , , , , , , , , , , , , , , , , , S i.i.i.i.Q.).h.i.i.i.i.I.a , , , , , , , , , , , , , , , , , , , , , , , , ",
"            , , , , , , , , , , , , , , , , , , , q 9.i.i.i.i.Y./.i.i.i.i.i.U.a.a , , , , , , , , , , , , , , , , , , , , , , , ",
"            , , , , , , , , , , , , , , , , , , , | y.i.i.i.y.Y./.i.y.y.y.y.z.U.O., , , , , , , , , , , , , , , , , , , , , , , ",
"          , , , , , , , , , , , , , , , , , , , l y.i.i.i.i.i.T.).P.y.y.i.K.Y.U.N , , , , , , , , , , , , , , , , , , , , , , , ",
", , , , , , , , , , , , , , , , , , , , , , , 2 X.y.i.i.i.i.i.Q.).P.i.i.S.L.H.U.x , , , , , , , , , , , , , , , , , , , , , , , ",
", , , , , , , , , , , , , , , , , , , , , , , l y.i.i.i.i.i.i.T./.h.i.i.K.L.L.1.2 , , , , , , , , , , , , , , , , , , , , , , , ",
", , , , , , , , , , , , , , , , , , , , , , p y.i.i.i.i.i.i.i.P.H.y.i.F.L.L.L.S.9 , , , , , , , , , , , , , , , , , , , , , , , ",
", , , , , , , , , , , , , , , , , , , , , , | i.i.i.i.i.i.y.y.y.i.D.L.L.L.L.L.L.C , , , , , , , , , , , , , , , , , , , , , , , ",
", , , , , , , , , , , , , , , , , , , , , m y.i.i.y.y.i.i.y.i.r.A.L.L.L.L.L.L.L.w., , , , , , , , , , , , , , , , , , , , , , , ",
", , , , , , , , , , , , , , , , , , , , w y.i.y.y.y.t.8. .l { -.;.G.L.L.L.L.L.L.L.q , , , , , , , , , , , , , , , , , , , , , , ",
", , , , , , , , , , , , , , , , , , , ,  .y.y.8.| m q 5 , , p -.-.-.J.L.L.L.L.L.L.Z , , , , , , , , , , , , , , , , , , , , , , ",
", , , , , , , , , , , , , , , , , , , , w 5 3 , , , , , , , 2 @.-.-.r.J.L.L.L.L.L.Z , , , , , , , , , , , , , , , , , , , , , , ",
", , , , , , ,         , , , , , , , , , , , , , , , , , , , , c -.-.-.-.G.L.L.L.S.5 , , , , , , , , , , , , , , , , , , , , , , ",
", , , , , ,             , , , , , , , , , , , , , , , , , , , 2 #.d.d.J N `.!.!.s , , , , , , , , , , , , , , , , , , , , , , , ",
", , , , , ,             , , , , , , , , , , , , , , , , , , , , 3.Y.Y.z v.].].K , , , , , , , , , , , , , , , , , , , , , , , , ",
", , , , , ,           , , , , , , , , , , , , , , , , , , , , , c.Y.Y.v.].].s.2 , , , , , , , , , , , , , , , , , , , , , , , , ",
", , , , , ,         , , , , , , , , , , , , , , , , , , , , , , c.Y.~.].].W.0 , , , , , , , , , , , , , , , , , , , , , , , , , ",
", , , , , , , , , , , , , , , , , , , , , , , , , , , , , , , , c.Y.'.].v.9 , , , , , , , , , , , , , , , , , , , , , , , , , , ",
", , , , , , , , , , , , , , , , , , , , , , , , , , , , , , , , f.o.:.b.a , , , , , , , , , , , , , , , < , , , , , , , , , , , ",
", , , , , , , , , , , , , , , , , , , , , , , , , , , , , , , , >.: = = 8 , , , , , , , , , , , , , , , , , , , , , , , , , , , ",
", , , , , , , , , , , , , , , , , , , , , , , , , , , , , , , i : = = $ , , , , , , , , , , , , , , , , , , , , , , , , , , , , ",
", , , , , , , , , , , , , , , , , , , , , , , , , , , , , , i = = = & . , , , , , , , , , , , , , , , , , , , , , , , , , , , , ",
", , , , , , , , , , , , , , , , , , , , , , , , , , , , , , 6 $ = = = i , , , , , , , , , , , , , , , , , , , , , , , , , , , , ",
", , , , , , , , , , , , , , , , , , , , , , , , , , < , < , , X + & = * 2 , , , , , , , , , , , , , , , , , , , , , , , , , , , ",
", , , , , , , , , , , , , , , , , , , , , , , , , < < < < < , @ O O + = # , , , , , , , , , , , , , , , , , , , , , , , , , , , ",
", , , , , , , , , , , , , , , , , , , , , , , , , , , , , , , @ O O O + & % o , , , , , , , , , , , , , , , , , , , , , , , , , ",
", , , , , , , , , , , , , , , , , , , , , , , , , , , , , , , , , , , , , , , , , , , , , , , , , , , , , , , , , , , , , , , , ",
", , , , , , , , , , , , , , , , , , , , , , , , , , , , , , , , , , , , , , , , , , , , , , , , , , , , , , , , , , , , , , , , ",
", , , , , , , , , , , , , , , , , , , , , , , , , , , , , , , , , , , , , , , , , , , , , , , , , , , , , , , , , , , , , , , , ",
", , , , , , , , , , , , , , , , , , , , , , , , , , , , , , , , , , , , , , , , , , , , , , , , , , , , , , , , , , , , , , , , "
};
