/* XPM */
static char *prince_s[] = {
/* columns rows colors chars-per-pixel */
"36 64 188 2 ",
"   c #624F4E",
".  c #63504F",
"X  c #6F5A58",
"o  c #695554",
"O  c #735E5C",
"+  c #78625F",
"@  c #7D6864",
"#  c #786462",
"$  c #836E6A",
"%  c #806B67",
"&  c #887572",
"*  c #C6785E",
"=  c #C67C61",
"-  c #C87C62",
";  c #93817E",
":  c #B9977D",
">  c #C98066",
",  c #CA8269",
"<  c #DC8766",
"1  c #DD896A",
"2  c #CE8A72",
"3  c #D68F70",
"4  c #DF8E70",
"5  c #D59171",
"6  c #D0907A",
"7  c #DF9577",
"8  c #E09578",
"9  c #789E8B",
"0  c #7DA591",
"q  c #8F8180",
"w  c #9E8E8B",
"e  c #AA9F97",
"r  c #A99F9E",
"t  c #88AA99",
"y  c #87B19C",
"u  c #89B29D",
"i  c #ACA78C",
"p  c #ADA796",
"a  c #ACB69A",
"s  c #B9B69D",
"d  c #8BB6A0",
"f  c #8BBBA4",
"g  c #8DBFA8",
"h  c #90BAA5",
"j  c #98B6A8",
"k  c #99BDA5",
"l  c #98BFBC",
"z  c #ACA2A0",
"x  c #B6ADAD",
"c  c #A1BDA3",
"v  c #BAB0AC",
"b  c #D59E8A",
"n  c #E39E84",
"m  c #C4A58E",
"M  c #DBA189",
"N  c #D9A997",
"B  c #DCB09F",
"V  c #E4A78F",
"C  c #DEB3A3",
"Z  c #D3B4A2",
"A  c #C3BBBA",
"S  c #C0B7B4",
"D  c #E1BBAC",
"F  c #EABBA8",
"G  c #E4B8A1",
"H  c #8EC1A9",
"J  c #91C4AC",
"K  c #98C6AC",
"L  c #93CBB3",
"P  c #9BC3BD",
"I  c #99CBB7",
"U  c #95D0B7",
"Y  c #9AD3B6",
"T  c #96D1B8",
"R  c #9CD3BB",
"E  c #BFC2AC",
"W  c #A7C7B7",
"Q  c #AFC7B3",
"!  c #A0C2BE",
"~  c #A3D4BD",
"^  c #AAD5BE",
"/  c #A9D6B1",
"(  c #D1CABE",
")  c #C9D2BF",
"_  c #E4C3B6",
"`  c #E6CCB7",
"'  c #E7DCB9",
"]  c #E8D0BB",
"[  c #E5E5B6",
"{  c #E6E6BA",
"}  c #E8E6BE",
"|  c #9CC5C2",
" . c #9EC9C6",
".. c #9CD5C4",
"X. c #A7C7C2",
"o. c #A7CBC8",
"O. c #B3CCC7",
"+. c #AED6C0",
"@. c #AAD9C5",
"#. c #A0D4CC",
"$. c #A8D9C5",
"%. c #B7D6C4",
"&. c #B4DAC4",
"*. c #B5DECD",
"=. c #BBD7C2",
"-. c #A5DAD6",
";. c #A7DCDA",
":. c #A8DCDB",
">. c #A4D6D5",
",. c #B2DFDB",
"<. c #BCD8D4",
"1. c #B8E0C4",
"2. c #BEE2D4",
"3. c #BAE4E2",
"4. c #CAC3C1",
"5. c #C5DCC7",
"6. c #CBDACB",
"7. c #D6DBCD",
"8. c #D8DDCE",
"9. c #D7D1C4",
"0. c #CADCD4",
"q. c #C3DAD8",
"w. c #DADCD1",
"e. c #D9D8D4",
"r. c #E8CDC3",
"t. c #EAD4C3",
"y. c #E1D5C8",
"u. c #EBD5CB",
"i. c #E3D9CC",
"p. c #EEDCCC",
"a. c #E4D6C5",
"s. c #F1DCCD",
"d. c #EEDAD2",
"f. c #E5DCD2",
"g. c #F3DCD2",
"h. c #DEE1CE",
"j. c #C3E3D6",
"k. c #C6E6DC",
"l. c #DBE0D5",
"z. c #D4E2D9",
"x. c #EBE5C3",
"c. c #EAE9C4",
"v. c #EEE3CC",
"b. c #ECECCD",
"n. c #E6E3D3",
"m. c #ECE4D2",
"M. c #EEEED1",
"N. c #E9EADC",
"B. c #F2E5D3",
"V. c #F3E2DA",
"C. c #F4EADD",
"Z. c #F0F0D7",
"A. c #F2F2DC",
"S. c #D4ECE2",
"D. c #DAEFE6",
"F. c #D9E8E5",
"G. c #DEF1EA",
"H. c #C7E9E7",
"J. c #E6E3E2",
"K. c #E3EEEB",
"L. c #E2EBE7",
"P. c #F5EBE4",
"I. c #F0EFEE",
"U. c #E3F3ED",
"Y. c #EFF6ED",
"T. c #F6F5E6",
"R. c #F8F7E6",
"E. c #F6F5EA",
"W. c #F9F4EC",
"Q. c #F8F8ED",
"!. c #E6F4F1",
"~. c #ECF5F2",
"^. c #EDF8F6",
"/. c #F4F5F2",
"(. c #F9F6F3",
"). c #F1F9F6",
"_. c #FBFCF7",
"`. c #FAF9F5",
"'. c #F5FBF9",
"]. c #FCFBF9",
"[. c #FDFDFB",
"{. c #FCFDF9",
"}. c #FDFEFD",
"|. c #FEFFFF",
" X c #FFFFFF",
".X c #FEFEFE",
"XX c #FDFEFD",
"oX c #FEFFFF",
/* pixels */
"|.|.|.|.|.|.|.|.|.|.|.|.|.|.|.|.|.|.|.|.|.|.|.|.|.|.|.|.|.|.|.|.|.|.|.|.",
"|.|.|.|.|.|.|.|.|.|.|.|.|.|.|.|.|.|.|.|.|.|.|.|.|.|.|.|.|.|.|.|.|.|.|.|.",
"|.|.|.|.|.|.|.|.|.|.|.|.|.|.|.|.|.|.|.|.|.|.|.|.|.|.|.|.|.|.|.|.|.|.|.|.",
"|.|.|.|.|.|.|.|.|.|.|.|.|.|.|.|.|.|.|.T.b.c.c.M.E.|.|.|.|.|.|.|.|.|.|.|.",
"|.|.|.|.|.|.|.|.|.|.|.|.|.|.|.|.|.|.M.[ [ [ [ [ { M.E.Q.|.|.|.|.|.|.|.|.",
"|.|.|.|.|.|.|.|.|.|.|.|.|.|.|.|._.b.{ [ [ [ [ [ [ [ { T.|.|.|.|.|.|.|.|.",
"|.|.|.|.|.|.|.|.|.|.|.|.|.|.|.Q.c.[ [ [ [ [ [ [ [ [ [ Z.|.|.|.|.|.|.|.|.",
"|.|.|.|.|.|.|.|.|.|.|.|.|.|.|.b.[ [ [ [ [ [ { } x.} [ c._.|.|.|.|.|.|.|.",
"|.|.|.|.|.|.|.|.|.|.|.|.|.|.Q.{ [ [ [ [ [ [ x.B.B.B.v.b.A.|.|.|.|.|.|.|.",
"|.|.|.|.|.|.|.|.|.|.|.|.|.|.E.{ [ [ [ [ [ { v.B.a.a.B._.|.|.|.|.|.|.|.|.",
"|.|.|.|.|.|.|.|.|.|.|.|.|.|._.c.[ [ [ ' ' v.B.v.9.i.B.(.|.|.|.|.|.|.|.|.",
"|.|.|.|.|.|.|.|.|.|.|.|.|.|.|.A.[ [ [ ` t.B.B.B.n.l.B.W.|.|.|.|.|.|.|.|.",
"|.|.|.|.|.|.|.|.|.|.|.|.|.|.|.A.} [ [ ' p.B.B.B.B.B.p.p.|.|.|.|.|.|.|.|.",
"|.|.|.|.|.|.|.|.|.|.|.|.|.|.|.|.A.[ { x.B.B.B.B.B.B.B.P.|.|.|.|.|.|.|.|.",
"|.|.|.|.|.|.|.|.|.|.|.|.|.|.|.|.|.Z.v.B.B.B.B.B.B.B.C.|.|.|.|.|.|.|.|.|.",
"|.|.|.|.|.|.|.|.|.|.|.|.|.|.|.|.|.|.C.v.B.B.B.B.B.B.P.|.|.|.|.|.|.|.|.|.",
"|.|.|.|.|.|.|.|.|.|.|.|.|.|.|.|.P.V.s.] a.p.B.B.B.B.T.|.|.|.|.|.|.|.|.|.",
"|.|.|.|.|.|.|.|.|.|.|.|.|.|.|.g.8 4 4 7 M G P.(.W.W.|.|.|.|.|.|.|.|.|.|.",
"|.|.|.|.|.|.|.|.|.|.|.|.|.|.|.F < 1 1 1 1 1 n g.|.|.|.|.|.|.|.|.|.|.|.|.",
"|.|.|.|.|.|.|.|.|.|.|.|.|.|._.V 1 3 5 1 1 1 < F |.|.|.|.|.|.|.|.|.|.|.|.",
"|.|.|.|.|.|.|.|.|.|.|.|.|.|.P.s a k k p 5 1 1 s.|.|.|.|.|.|.|.|.|.|.|.|.",
"|.|.|.|.|.|.|.|.|.|.|.|.|._.Z K J J J J c a ) (.|.|.|.|.|.|.|.|.|.|.|.|.",
"|.|.|.|.|.|.|.|.|.|.|.|.|._ : L J J J J L Y 1.|.|.|.|.|.|.|.|.|.|.|.|.|.",
"|.|.|.|.|.|.|.|.|.|.|.|.t.> i L J J J J L Y &.|.|.|.|.|.|.|.|.|.|.|.|.|.",
"|.|.|.|.|.|.|.|.|.|.|.r.> - c J J J J J L T ~ ~.|.|.|.|.|.|.|.|.|.|.|.|.",
"|.|.|.|.|.|.|.|.|.(.D > - m I J J J J J L T L 0.|.|.|.|.|.|.|.|.|.|.|.|.",
"|.|.|.|.|.|.|.|.u.b - - B 5.L J J J J J L T L W |.|.|.|.|.|.|.|.|.|.|.|.",
"|.|.|.|.|.P.r.M > * > D /.@.J J J J J J L / K h K.|.|.|.|.|.|.|.|.|.|.|.",
"|.P._ C b 2 - * * 6 u.|.D.J f f H H J J L Y J y 0.|.|.|.|.|.|.|.|.|.|.|.",
"|.V.> * * * * > B P.|.|.*.f u u u u d f L T g 0 t z.|.|.|.|.|.|.|.|.|.|.",
"|.|.D - * > M d.|.|.|.U.R H d u y u u u H T f 9 t L.|.|.|.|.|.|.|.|.|.|.",
"|.|.|.r.C d.|.|.|.|.|.2.T T =.) Q h f g L Y g j 0.|.|.|.|.|.|.|.|.|.|.|.",
"|.|.|.|.|.|.|.|.|.|.~.~ T T 5.B.n.R L T Y / z.|.|.|.|.|.|.|.|.|.|.|.|.|.",
"|.|.|.|.|.|.|.|.|.|.j.T T T %.B.h.R T T T R l.|.|.|.|.|.|.|.|.|.|.|.|.|.",
"|.|.|.|.|.|.|.|.|.!.R T T T +.m.7.R T T T ~ i.(.|.|.|.|.|.|.|.|.|.|.|.|.",
"|.|.|.|.|.|.|.|.|.2.T T T T ~ m.6.T T T T %.y.f.(.|.|.|.|.|.|.|.|.|.|.|.",
"|.|.|.|.|.|.|.|.U.R T T T T ~ m.h.R T T T j.i.y.P.|.|.|.|.|.|.|.|.|.|.|.",
"|.|.|.|.|.|.|.|.*.T T T T T ^ m.m.&.T T R ,.w.y.E.|.|.|.|.|.|.|.|.|.|.|.",
"|.|.|.|.|.|.|.S.R T T T T T ^ m.m.+.T T #.;.<.i.(.|.|.|.|.|.|.|.|.|.|.|.",
"|.|.|.|.|.|.).$.T T T T T T ^ m.7.T T ..;.:.:.G.|.|.|.|.|.|.|.|.|.|.|.|.",
"|.|.|.|.|.|.j.T T T T T T T R 5.~ T ..-.:.:.;.3.|.|.|.|.|.|.|.|.|.|.|.|.",
"|.|.|.|.|.G.R T T T T T T T T T ..-.;.:.:.:.;.:.!.|.|.|.|.|.|.|.|.|.|.|.",
"|.|.|.|.'.@.T T T T T T T R I P #.:.:.;.:.:.:.;.H.|.|.|.|.|.|.|.|.|.|.|.",
"|.|.|.|.j.T T T T T ~ *.S.!.o.l  .>.;.;.:.:.:.;.3.'.|.|.|.|.|.|.|.|.|.|.",
"|.|.|.U.@.$.@.*.k.D.~.|.|.|.q.l l  .-.;.:.:.:.:.:.^.|.|.|.|.|.|.|.|.|.|.",
"|.|.|.'.^.).'.|.|.|.|.|.|.|.K.P l l  .-.;.:.:.;.:.^.|.|.|.|.|.|.|.|.|.|.",
"|.|.|.|.|.|.|.|.|.|.|.|.|.|.|.<.l l l o.,.:.;.;.H.|.|.|.|.|.|.|.|.|.|.|.",
"|.|.|.|.|.|.|.|.|.|.|.|.|.|.|.~.O.W X.S.Y.S.k.S.'.|.|.|.|.|.|.|.|.|.|.|.",
"|.|.|.|.|.|.|.|.|.|.|.|.|.|.|._.w.6.w./.W.R.T._.|.|.|.|.|.|.|.|.|.|.|.|.",
"|.|.|.|.|.|.|.|.|.|.|.|.|.|.|./.8.7.w.T.T.T.Q.|.|.|.|.|.|.|.|.|.|.|.|.|.",
"|.|.|.|.|.|.|.|.|.|.|.|.|.|.|./.7.7.N.T.T.Q.|.|.|.|.|.|.|.|.|.|.|.|.|.|.",
"|.|.|.|.|.|.|.|.|.|.|.|.|.|.|./.7.w.T.T.Q.|.|.|.|.|.|.|.|.|.|.|.|.|.|.|.",
"|.|.|.|.|.|.|.|.|.|.|.|.|.|.|./.9.e ( T.|.|.|.|.|.|.|.|.|.|.|.|.|.|.|.|.",
"|.|.|.|.|.|.|.|.|.|.|.|.|.|.|./.p @ $ v |.|.|.|.|.|.|.|.|.|.|.|.|.|.|.|.",
"|.|.|.|.|.|.|.|.|.|.|.|.|.|.|.S $ @ $ 4.|.|.|.|.|.|.|.|.|.|.|.|.|.|.|.|.",
"|.|.|.|.|.|.|.|.|.|.|.|.|.|.x @ @ @ w /.|.|.|.|.|.|.|.|.|.|.|.|.|.|.|.|.",
"|.|.|.|.|.|.|.|.|.|.|.|.|.|.A & @ @ ; I.|.|.|.|.|.|.|.|.|.|.|.|.|.|.|.|.",
"|.|.|.|.|.|.|.|.|.|.|.|.|.|.|.z O @ $ 4.|.|.|.|.|.|.|.|.|.|.|.|.|.|.|.|.",
"|.|.|.|.|.|.|.|.|.|.|.|.|.|./.q . X + ; J.|.|.|.|.|.|.|.|.|.|.|.|.|.|.|.",
"|.|.|.|.|.|.|.|.|.|.|.|.|.|.J.# . . . X & r e.|.|.|.|.|.|.|.|.|.|.|.|.|.",
"|.|.|.|.|.|.|.|.|.|.|.|.|.|./.A x x x x x x e.|.|.|.|.|.|.|.|.|.|.|.|.|.",
"|.|.|.|.|.|.|.|.|.|.|.|.|.|.|.|.|.|.|.|.|.|.|.|.|.|.|.|.|.|.|.|.|.|.|.|.",
"|.|.|.|.|.|.|.|.|.|.|.|.|.|.|.|.|.|.|.|.|.|.|.|.|.|.|.|.|.|.|.|.|.|.|.|.",
"|.|.|.|.|.|.|.|.|.|.|.|.|.|.|.|.|.|.|.|.|.|.|.|.|.|.|.|.|.|.|.|.|.|.|.|."
};
