/* XPM */
static char *sprite2[] = {
/* columns rows colors chars-per-pixel */
"64 64 225 2 ",
"   c #190909",
".  c #1C0D0D",
"X  c #16120B",
"o  c #1A1816",
"O  c #270B0A",
"+  c #3A0302",
"@  c #3B0E0E",
"#  c #31150C",
"$  c #231212",
"%  c #241C13",
"&  c #2B1916",
"*  c #221D1C",
"=  c #2D1918",
"-  c #351714",
";  c #331B1A",
":  c #3B1E1D",
">  c #182E0F",
",  c #1B3811",
"<  c #3F2A0C",
"1  c #282216",
"2  c #242C14",
"3  c #372416",
"4  c #35231D",
"5  c #3D211E",
"6  c #332C1C",
"7  c #283518",
"8  c #2D3E1A",
"9  c #39331F",
"0  c #35391D",
"q  c #3F2121",
"w  c #322A22",
"e  c #3E2C21",
"r  c #373928",
"t  c #3C3C3C",
"y  c #480606",
"u  c #550202",
"i  c #5B0505",
"p  c #451413",
"a  c #471B1A",
"s  c #501313",
"d  c #650000",
"f  c #533B0B",
"g  c #432222",
"h  c #442B22",
"j  c #4B2A26",
"k  c #472E28",
"l  c #4E2828",
"z  c #512424",
"x  c #522A29",
"c  c #5C2E2E",
"v  c #493827",
"b  c #58332C",
"n  c #553D2C",
"m  c #413F3F",
"M  c #593734",
"N  c #543E32",
"B  c #602F2F",
"V  c #653333",
"C  c #6B3535",
"Z  c #653D35",
"A  c #713938",
"S  c #7B3E3E",
"D  c #13520F",
"F  c #125C0F",
"G  c #174713",
"H  c #1C4E14",
"J  c #145210",
"K  c #1D5315",
"L  c #135A11",
"P  c #1B5C15",
"I  c #2B4319",
"U  c #264818",
"Y  c #29551A",
"T  c #30541E",
"R  c #1A6415",
"E  c #146C13",
"W  c #1B6916",
"Q  c #1B6E16",
"!  c #157314",
"~  c #1A7615",
"^  c #167B15",
"/  c #1B7B15",
"(  c #1E7D18",
")  c #226319",
"_  c #26671A",
"`  c #387413",
"'  c #3C4B22",
"]  c #2E5C22",
"[  c #2F6425",
"{  c #297923",
"}  c #435912",
"|  c #674D03",
" . c #6D5109",
".. c #4A6C0C",
"X. c #637609",
"o. c #544227",
"O. c #5D412C",
"+. c #574636",
"@. c #514D32",
"#. c #684A3C",
"$. c #7B403F",
"%. c #605836",
"&. c #476937",
"*. c #746E36",
"=. c #504742",
"-. c #575846",
";. c #575454",
":. c #774841",
">. c #675A45",
",. c #755844",
"<. c #50704F",
"1. c #7C684E",
"2. c #716C50",
"3. c #8D6D0B",
"4. c #997C08",
"5. c #AB6F00",
"6. c #997527",
"7. c #8A6F3B",
"8. c #8D7338",
"9. c #834343",
"0. c #894747",
"q. c #856854",
"w. c #8E7554",
"e. c #8B715A",
"r. c #9A795A",
"t. c #847762",
"y. c #977E6C",
"u. c #168316",
"i. c #188417",
"p. c #178A17",
"a. c #1B8619",
"s. c #198D18",
"d. c #199419",
"f. c #1A9A1A",
"g. c #24821B",
"h. c #278B25",
"j. c #219121",
"k. c #378E34",
"l. c #578936",
"z. c #499931",
"x. c #658435",
"c. c #5D8648",
"v. c #5F9B49",
"b. c #779157",
"n. c #7BA57B",
"m. c #868403",
"M. c #A78908",
"N. c #B48A03",
"B. c #BD9704",
"V. c #B18F18",
"C. c #B8BB03",
"Z. c #9D842C",
"A. c #B59726",
"S. c #B28D3A",
"D. c #CB8501",
"F. c #D38D02",
"G. c #C89308",
"H. c #DC9700",
"J. c #E99606",
"K. c #D6A703",
"L. c #D2B302",
"P. c #E2A400",
"I. c #F8A300",
"U. c #EBB900",
"Y. c #FCB900",
"T. c #C58F2D",
"R. c #CE9B26",
"E. c #F6C500",
"W. c #FCC400",
"Q. c #FECB00",
"!. c #F6DC00",
"~. c #EBE200",
"^. c #988A57",
"/. c #A58E46",
"(. c #B99956",
"). c #85A950",
"_. c #A7A75C",
"`. c #998565",
"'. c #8F936F",
"]. c #9C9D77",
"[. c #AC9363",
"{. c #A98D74",
"}. c #A89873",
"|. c #B69377",
" X c #BC9B7B",
".X c #9EA165",
"XX c #B9A468",
"oX c #BAA477",
"OX c #D7AA47",
"+X c #DCB24E",
"@X c #CCA658",
"#X c #E3BB5B",
"$X c #C7947B",
"%X c #D8B368",
"&X c #C5A776",
"*X c #C8B370",
"=X c #E7BB66",
"-X c #F1B674",
";X c #F6CF6B",
":X c #FBD379",
">X c #90958B",
",X c #A79785",
"<X c #B99E86",
"1X c #BFA68D",
"2X c #A3A2A2",
"3X c #F69089",
"4X c #C9B684",
"5X c #D0B68E",
"6X c #FFB2AD",
"7X c #D8C28D",
"8X c #DBC694",
"9X c #D0D193",
"0X c #E2C486",
"qX c #F5D388",
"wX c #E1CB97",
"eX c #E8D29B",
"rX c #F8DC9B",
"tX c #EED8A2",
"yX c #FBD6A4",
"uX c #F4DDA6",
"iX c #FDE3A4",
"pX c #F5E0AD",
"aX c #FCE4AB",
"sX c #FDE7B2",
"dX c #C9C8C8",
/* pixels */
"f.f.f.f.f.f.f.f.f.f.f.f.f.f.f.f.f.f.f.f.f.f.f.f.f.f.f.f.f.f.f.f.f.f.f.f.f.f.f.f.f.f.f.f.f.f.f.f.f.f.f.f.f.f.f.f.f.f.f.f.f.f.f.f.",
"f.f.f.f.f.f.f.f.f.f.f.f.f.f.f.f.f.f.f.f.f.f.f.f.f.f.f.f.f.f.f.f.f.f.f.f.f.f.f.f.f.f.f.f.f.f.f.f.f.f.f.f.f.f.f.f.f.f.f.f.f.f.f.f.",
"f.f.f.f.f.f.f.f.f.f.f.f.f.f.f.f.f.f.f.f.f.f.f.f.f.f.f.f.f.f.f.f.f.f.f.f.f.f.f.f.f.f.f.f.f.f.f.f.f.f.f.f.f.f.f.f.f.f.f.f.f.f.f.f.",
"f.f.f.f.f.f.f.f.f.f.f.f.f.f.f.f.f.f.f.f.f.f.f.f.f.f.f.f.f.f.f.f.f.f.f.f.f.f.f.f.f.f.f.f.f.f.f.f.f.f.f.f.f.f.f.f.f.f.f.f.f.f.f.f.",
"f.f.f.f.f.f.f.f.f.f.f.f.f.f.f.f.f.f.f.f.f.f.f.f.f.f.f.f.f.f.f.f.f.d.f.f.f.f.f.f.f.f.f.f.f.f.f.f.f.f.f.f.f.f.f.f.f.f.f.f.f.f.f.f.",
"f.f.f.f.f.f.f.f.f.f.f.f.f.f.f.f.f.f.f.f.f.f.f.f.f.f.f.f.f.f.f.^ _ ] _ s.f.f.f.f.f.f.f.f.f.f.f.f.f.f.f.f.f.f.f.f.f.f.f.f.f.f.f.f.",
"f.f.f.f.f.f.f.f.f.f.f.f.f.f.f.f.f.f.f.f.f.f.f.f.f.f.f.f.f.s._ o.V V b T i.s.u.d.f.f.f.f.f.f.f.f.f.f.f.f.f.f.f.f.f.f.f.f.f.f.f.f.",
"f.f.f.f.f.f.f.f.f.f.f.f.f.f.f.f.f.f.f.f.f.f.f.f.f.f.f.f.p.U Z 9.S V V V v v n ' P s.f.f.f.f.f.f.f.f.f.f.f.f.f.f.f.f.f.f.f.f.f.f.",
"f.f.f.f.f.f.f.f.f.f.f.f.f.f.f.f.f.f.f.f.f.f.f.f.f.f.f.d.8 $.0.0.S V V V V V V C C 8 s.f.f.f.f.f.f.f.f.f.f.f.f.f.f.f.f.f.f.f.f.f.",
"f.f.f.f.f.f.f.f.f.f.f.f.f.f.f.f.f.f.f.f.f.f.f.f.f.f.d.I $.0.0.0.A V V V V V V V V C I d.f.f.f.f.f.f.f.f.f.f.f.f.f.f.f.f.f.f.f.f.",
"f.f.f.f.f.f.f.f.f.f.f.f.f.f.f.f.f.f.f.f.f.f.f.f.f.d.P A 0.0.0.9.V V V V V V V V V V c P f.f.f.f.f.f.f.f.f.f.f.f.f.f.f.f.f.f.f.f.",
"f.f.f.f.f.f.f.f.f.f.f.f.f.f.f.f.f.f.f.f.f.f.f.f.f.~ v S 9.9.:.A V V V V V V V V V V V 9 s.f.f.f.f.f.f.f.f.f.f.f.f.f.f.f.f.f.f.f.",
"f.f.f.f.f.f.f.f.f.f.f.f.f.f.f.f.f.f.f.f.f.f.f.f.d.U b C C C C V V V V V V V V V V V V b E f.f.f.f.f.f.f.f.f.f.f.f.f.f.f.f.f.f.f.",
"f.f.f.f.f.f.f.f.f.f.f.f.f.f.f.f.f.f.f.f.f.f.f.f.^ v V V V V V V V V V V V V V V V V V V K f.f.f.f.f.f.f.f.f.f.f.f.f.f.f.f.f.f.f.",
"f.f.f.f.f.f.f.f.f.f.f.f.f.f.f.f.f.f.f.f.f.f.f.f._ b V V V V V V V V V V V V V V V V V V U f.f.f.f.f.f.f.f.f.f.f.f.f.f.f.f.f.f.f.",
"f.f.f.f.f.f.f.f.f.f.f.f.f.f.f.f.f.f.d.^ u.d.f.d.T c V V V V V V V V V V V V V V V V V V I f.f.f.f.f.f.f.f.f.f.f.f.f.f.f.f.f.f.f.",
"f.f.f.f.f.f.f.f.f.f.f.f.f.f.f.f.f.f./ > 2 H R E 8 c V V V V V V V V V V V l x x x x x c 8 f.f.f.f.f.f.f.f.f.f.f.f.f.f.f.f.f.f.f.",
"f.f.f.f.f.f.f.f.f.f.f.f.f.f.f.f.f.f.u.7 ; : 4 2 # p p p a a g l z x c V V ; V c c c c x 7 ^ d.f.f.f.f.f.f.f.f.f.f.f.f.f.f.f.f.f.",
"f.f.f.f.f.f.f.f.f.f.f.f.f.f.f.f.f.f.d.Y & : g : + d d d d d d d i u y y @ g V V V V V V V n I E f.f.f.f.f.f.f.f.f.f.f.f.f.f.f.f.",
"f.f.f.f.f.f.f.f.f.f.f.f.f.f.f.f.f.f.f.! 6 ; g : y d d d d d d d d d d d p V V V V V V V V V C V 7 u.f.f.f.f.f.f.f.f.f.f.f.f.f.f.",
"f.f.f.f.f.f.f.f.f.f.f.f.f.f.f.f.f.f.f.d.U 5 : @ y d d d d d d d d i u p c V V V V V V V V V V V C v Q f.f.f.f.f.f.f.f.f.f.f.f.f.",
"f.f.f.f.f.f.f.f.f.f.f.f.f.f.f.f.f.f.f.f.u.0 5 - + y u u u u u u i s z V V V V V V V V V V V V V V V ' p.f.f.f.f.f.f.f.f.f.f.f.f.",
"f.f.f.f.f.f.f.f.f.f.f.f.f.f.f.f.f.f.f.f.f.^ I 5 a p @ @ p p a z x V C V V V V V V V V V V V V V V V v / f.f.f.f.f.f.f.f.f.f.f.f.",
"f.f.f.f.f.f.f.f.f.f.f.f.f.f.f.f.f.f.f.f.f.f.p.R I f 3 : : q g l l l l x x x x c c c c V V V V V V c 9 ~ f.f.f.f.f.f.f.f.f.f.f.f.",
"f.f.f.f.f.f.f.f.f.f.f.f.f.f.f.f.f.f.f.f.f.f.f.f.` C.~.K.B.3. .| f < - = = ; : : g g g g g g g g g : , p.f.f.f.f.f.f.f.f.f.f.f.f.",
"f.f.f.f.f.f.f.f.f.f.f.f.f.f.f.f.f.f.f.f.f.f.f.f.^ } C.!.Q.U.J.I.Y.W.W.U.K.G.N.4.3.| 6 w 1 > > > , F s.f.f.f.f.f.f.f.f.f.f.f.f.f.",
"f.f.f.f.f.f.f.f.f.f.f.f.f.f.f.f.f.f.f.f.f.f.f.f.i.*.@.m.L.K.Z.T.J.H.I.Y.Y.W.W.Q.Q.U.;XeX].{ f.f.f.f.f.f.f.f.f.f.f.f.f.f.f.f.f.f.",
"f.f.f.f.f.f.f.f.f.f.f.f.f.f.f.f.f.f.f.f.f.f.f.f.u.<.2Xw /.A.Z.oXXX| 6.T.G.F.H.P.P.P.K.S.}.c.s.f.f.f.f.f.f.f.f.f.f.f.f.f.f.f.f.f.",
"f.f.f.f.f.f.f.f.f.f.f.f.f.f.f.f.f.f.f.f.f.f.f.f.u.<.;.-.tX8X4X4X7Xt r @.1.%X%X%X@XOXOX+X4Xb.u.f.f.f.f.f.f.f.f.f.f.f.f.f.f.f.f.f.",
"f.f.f.f.f.f.f.f.f.f.f.f.f.f.f.f.f.f.f.f.f.f.f.f.i.&.=.'.aXaXsXuXuX2.;.m y.yXaXaXrX:X;X:XwXc.d.f.f.f.f.f.f.f.f.f.f.f.f.f.f.f.f.f.",
"f.f.f.f.f.f.f.f.f.f.f.f.f.f.f.f.f.f.f.f.f.f.f.f.z.$X XtXaXaXaXuXaXtX}.$X3X6XyXiXqX;X:XrX2.R f.f.f.f.f.f.f.f.f.f.f.f.f.f.f.f.f.f.",
"f.f.f.f.f.f.f.f.f.f.f.f.f.f.f.f.f.f.f.f.f.f.f.f.f.{ .XeXuX5XoXeXiXiXrXqX-X=X=X=X#X8.3.4.M.` f.f.f.f.f.f.f.f.f.f.f.f.f.f.f.f.f.f.",
"f.f.f.f.f.f.f.f.f.f.f.f.f.f.f.f.f.f.f.f.f.f.f.f.f.f.~ x._.XX&X*X@X@X(.(.7.6.A.V.V.B.E.Q.U.X.s.f.f.f.f.f.f.f.f.f.f.f.f.f.f.f.f.f.",
"f.f.f.f.f.f.f.f.f.f.f.f.f.f.f.f.f.f.f.f.f.f.f.f.f.f.f.s.&.%.a r.8.S.w.e.l f T.A.M.K.Q.Q.W.B...~ ! s.f.f.f.f.f.f.f.f.f.f.f.f.f.f.",
"f.f.f.f.f.f.f.f.f.f.f.f.f.f.f.f.f.f.f.f.f.f.f.f.f.f.f.J >.+.- q.o./.r.,.l :.&Xe.{.[.G.Q.Q.W.K.N. .p.f.f.f.f.f.f.f.f.f.f.f.f.f.f.",
"f.f.f.f.f.f.f.f.f.f.f.f.f.f.f.f.f.f.f.f.f.f.f.f.f.f.E ,X<XM g q + ,.|.N l r.|.{.1Xt.*.Q.Q.Y.H.5.P f.f.f.f.f.f.f.f.f.f.f.f.f.f.f.",
"f.f.f.f.f.f.f.f.f.f.f.f.f.f.f.f.f.f.f.f.f.f.f.f.f.f.] ,Xy.q : q.#.p e.#.; O.,.5X[.7XuXR.I.I.D.| D f.f.f.f.f.f.f.f.f.f.f.f.f.f.f.",
"f.f.f.f.f.f.f.f.f.f.f.f.f.f.f.f.f.f.f.f.f.f.f.f.f.f._ 5XoXk & ,.|.#.a - = = e `.(.rXaX*XF.D.N.X.^ f.f.f.f.f.f.f.f.f.f.f.f.f.f.f.",
"f.f.f.f.f.f.f.f.f.f.f.f.f.f.f.f.f.f.f.f.f.f.f.f.f.f.v.aX8Xn ; +.5X X,.O = ; & 0 *.oXwX]...` / d.f.f.f.f.f.f.f.f.f.f.f.f.f.f.f.f.",
"f.f.f.f.f.f.f.f.f.f.f.f.f.f.f.f.f.f.f.f.f.f.f.f.f.h.9XaX0XO.; k  X{.r.O O $ . X e M ,.&.d.f.f.f.f.f.f.f.f.f.f.f.f.f.f.f.f.f.f.f.",
"f.f.f.f.f.f.f.f.f.f.f.f.f.f.f.f.f.f.f.f.f.f.f.f.f.k.eXaX0XO.; = ,X,X=.= O . ; = = g x I f.f.f.f.f.f.f.f.f.f.f.f.f.f.f.f.f.f.f.f.",
"f.f.f.f.f.f.f.f.f.f.f.f.f.f.f.f.f.f.f.f.f.f.f.f.f.{ >.N n 5 ; = dXdX;.= & ^.% ; l = : R f.f.f.f.f.f.f.f.f.f.f.f.f.f.f.f.f.f.f.f.",
"f.f.f.f.f.f.f.f.f.f.f.f.f.f.f.f.f.f.f.f.f.f.f.f.d.G * g : : ; = M M ; = 3 N & g g g % f.f.f.f.f.f.f.f.f.f.f.f.f.f.f.f.f.f.f.f.f.",
"f.f.f.f.f.f.f.f.f.f.f.f.f.f.f.f.f.f.f.f.f.f.f.f.f.H o * $ ; = ; l x g = . = = g g g 1 d.f.f.f.f.f.f.f.f.f.f.f.f.f.f.f.f.f.f.f.f.",
"f.f.f.f.f.f.f.f.f.f.f.f.f.f.f.f.f.f.f.f.f.f.f.f.d.H & . $ ; ; q l x l : = . . ; g 4 R f.f.f.f.f.f.f.f.f.f.f.f.f.f.f.f.f.f.f.f.f.",
"f.f.f.f.f.f.f.f.f.f.f.f.f.f.f.f.f.f.f.f.f.f.f.f.u.8 q X q g l g l x l g l g O . $ K d.f.f.f.f.f.f.f.f.f.f.f.f.f.f.f.f.f.f.f.f.f.",
"f.f.f.f.f.f.f.f.f.f.f.f.f.f.f.f.f.f.f.f.f.f.f.f.d.I g w 1.N 4 = : g q ; : ; 4 2 L p.f.f.f.f.f.f.f.f.f.f.f.f.f.f.f.f.f.f.f.f.f.f.",
"f.f.f.f.f.f.f.f.f.f.f.f.f.f.f.f.f.f.f.f.f.f.f.f.f.P e `.uXiXXX7 E ! ! [ XXeXeXb.s.f.f.f.f.f.f.f.f.f.f.f.f.f.f.f.f.f.f.f.f.f.f.f.",
"f.f.f.f.f.f.f.f.f.f.f.f.f.f.f.f.f.f.f.f.f.f.f.f.f.^ -.pXaXeX^.>Xh.f.f.a._.aXtX'.a.f.f.f.f.f.f.f.f.f.f.f.f.f.f.f.f.f.f.f.f.f.f.f.",
"f.f.f.f.f.f.f.f.f.f.f.f.f.f.f.f.f.f.f.f.f.f.f.f.f.Q >.oXwX*Xl.n.<.p.f.f.).iXuX}.[ d.f.f.f.f.f.f.f.f.f.f.f.f.f.f.f.f.f.f.f.f.f.f.",
"f.f.f.f.f.f.f.f.f.f.f.f.f.f.f.f.f.f.f.f.f.f.f.f.f.T l M ,.%.g.j.k.p.f.f.l.`.1.V 9 ( f.f.f.f.f.f.f.f.f.f.f.f.f.f.f.f.f.f.f.f.f.f.",
"f.f.f.f.f.f.f.f.f.f.f.f.f.f.f.f.f.f.f.f.f.f.f.f.s.I l x l 8 i.f.f.f.f.f._ j l x g Q f.f.f.f.f.f.f.f.f.f.f.f.f.f.f.f.f.f.f.f.f.f.",
"f.f.f.f.f.f.f.f.f.f.f.f.f.f.f.f.f.f.f.f.f.f.f.f.d.U = = ; K f.f.f.f.f.f.u.4 l : 1 R d.d.f.f.f.f.f.f.f.f.f.f.f.f.f.f.f.f.f.f.f.f.",
"f.f.f.f.f.f.f.f.f.f.f.f.f.f.f.f.f.f.f.f.d.( Y T 0 h x l 2 u.f.f.f.f.f.f.f.J = g l l 9 ' T Q d.f.f.f.f.f.f.f.f.f.f.f.f.f.f.f.f.f.",
"f.f.f.f.f.f.f.f.f.f.f.f.f.f.f.f.f.f.f.d.R h V V c x x l h P f.f.f.f.f.f.f.J g l x x c V V l R d.f.f.f.f.f.f.f.f.f.f.f.f.f.f.f.f.",
"f.f.f.f.f.f.f.f.f.f.f.f.f.f.f.f.f.f.f.^ 0 c B c x x l x l I d.f.f.f.f.f.f.2 x x l x x c c x 0 s.f.f.f.f.f.f.f.f.f.f.f.f.f.f.f.f.",
"f.f.f.f.f.f.f.f.f.f.f.f.f.f.f.f.f.f.f.Q e l l l g g g g q 8 p.f.f.f.f.f.d.% : : : : : : q 5 1 s.f.f.f.f.f.f.f.f.f.f.f.f.f.f.f.f.",
"f.f.f.f.f.f.f.f.f.f.f.f.f.f.f.f.f.f.f.u.L J D D D L R E E ^ d.f.f.f.f.f.f.! ! ! ! ! ! ! ! ! ^ d.f.f.f.f.f.f.f.f.f.f.f.f.f.f.f.f.",
"f.f.f.f.f.f.f.f.f.f.f.f.f.f.f.f.f.f.f.f.f.f.f.f.f.f.f.f.f.f.f.f.f.f.f.f.f.f.f.f.f.f.f.f.f.f.f.f.f.f.f.f.f.f.f.f.f.f.f.f.f.f.f.f.",
"f.f.f.f.f.f.f.f.f.f.f.f.f.f.f.f.f.f.f.f.f.f.f.f.f.f.f.f.f.f.f.f.f.f.f.f.f.f.f.f.f.f.f.f.f.f.f.f.f.f.f.f.f.f.f.f.f.f.f.f.f.f.f.f.",
"f.f.f.f.f.f.f.f.f.f.f.f.f.f.f.f.f.f.f.f.f.f.f.f.f.f.f.f.f.f.f.f.f.f.f.f.f.f.f.f.f.f.f.f.f.f.f.f.f.f.f.f.f.f.f.f.f.f.f.f.f.f.f.f.",
"f.f.f.f.f.f.f.f.f.f.f.f.f.f.f.f.f.f.f.f.f.f.f.f.f.f.f.f.f.f.f.f.f.f.f.f.f.f.f.f.f.f.f.f.f.f.f.f.f.f.f.f.f.f.f.f.f.f.f.f.f.f.f.f.",
"f.f.f.f.f.f.f.f.f.f.f.f.f.f.f.f.f.f.f.f.f.f.f.f.f.f.f.f.f.f.f.f.f.f.f.f.f.f.f.f.f.f.f.f.f.f.f.f.f.f.f.f.f.f.f.f.f.f.f.f.f.f.f.f.",
"f.f.f.f.f.f.f.f.f.f.f.f.f.f.f.f.f.f.f.f.f.f.f.f.f.f.f.f.f.f.f.f.f.f.f.f.f.f.f.f.f.f.f.f.f.f.f.f.f.f.f.f.f.f.f.f.f.f.f.f.f.f.f.f."
};
