/* XPM */
static char *sprite[] = {
/* columns rows colors chars-per-pixel */
"64 64 196 2 ",
"   c #170505",
".  c #1A0202",
"X  c #17100C",
"o  c #191614",
"O  c #1F1B19",
"+  c #250909",
"@  c #340101",
"#  c #390000",
"$  c #3A0D0D",
"%  c #251312",
"&  c #2C1515",
"*  c #241B17",
"=  c #2C1C16",
"-  c #2D1818",
";  c #381616",
":  c #331A1A",
">  c #3B1D1D",
",  c #0F250B",
"<  c #162B0E",
"1  c #083509",
"2  c #17350F",
"3  c #143D0F",
"4  c #1A2F10",
"5  c #252B14",
"6  c #2A2B18",
"7  c #32221A",
"8  c #36251A",
"9  c #293517",
"0  c #34371D",
"q  c gray18",
"w  c #3E2322",
"e  c #3D2C22",
"r  c #3F2828",
"t  c #2A3D2B",
"y  c #3C3B21",
"u  c #3A3939",
"i  c #4D0707",
"p  c #550000",
"a  c #5B0000",
"s  c #451A1A",
"d  c #650000",
"f  c #6B0000",
"g  c #472316",
"h  c #493B14",
"j  c #5E3D16",
"k  c #442222",
"l  c #4C2626",
"z  c #452B24",
"x  c #472C2B",
"c  c #4F2828",
"v  c #522727",
"b  c #522929",
"n  c #5B2D2D",
"m  c #463627",
"M  c #4F342D",
"N  c #4C3B2E",
"B  c #57332B",
"V  c #553B2C",
"C  c #4D3932",
"Z  c #5C3C36",
"A  c #663333",
"S  c #6A3535",
"D  c #6F3B39",
"F  c #733B3A",
"G  c #08430B",
"H  c #024C09",
"J  c #0C4D0C",
"K  c #12450F",
"L  c #13480F",
"P  c #025409",
"I  c #0C530D",
"U  c #035C0A",
"Y  c #0B5C0E",
"T  c #10500F",
"R  c #124910",
"E  c #135611",
"W  c #285105",
"Q  c #284A19",
"!  c #2A5F1F",
"~  c #03640B",
"^  c #016C0A",
"/  c #0E6A0F",
"(  c #136509",
")  c #01750C",
"_  c #007D0C",
"`  c #0A6412",
"'  c #0A7715",
"]  c #097C12",
"[  c #3B6F07",
"{  c #394E28",
"}  c #1F6022",
"|  c #2B6123",
" . c #5A4109",
".. c #5B4D1D",
"X. c #654C03",
"o. c #605401",
"O. c #644412",
"+. c #50422B",
"@. c #554D31",
"#. c #725924",
"$. c #664234",
"%. c #695538",
"&. c #775F31",
"*. c #446325",
"=. c #5F7A3E",
"-. c #5A5251",
";. c #665342",
":. c #765644",
">. c #6B5252",
",. c #79644F",
"<. c #6A7653",
"1. c #8A6901",
"2. c #827212",
"3. c #BA7905",
"4. c #8B6C28",
"5. c #947C39",
"6. c #844444",
"7. c #894747",
"8. c #8A7244",
"9. c #977F42",
"0. c #846856",
"q. c #8C7158",
"w. c #95775B",
"e. c #827B68",
"r. c #977C62",
"t. c #B87A70",
"y. c #00800D",
"u. c #028A0A",
"i. c #039109",
"p. c #2E832C",
"a. c #658805",
"s. c #7E814A",
"d. c #AA8801",
"f. c #BB8A03",
"g. c #BA9400",
"h. c #A18416",
"j. c #B6AE00",
"k. c #958223",
"l. c #BB8730",
"z. c #CD8801",
"x. c #D58F00",
"c. c #D59700",
"v. c #F69B00",
"b. c #DAAE05",
"n. c #FAA405",
"m. c #E8B703",
"M. c #FCB901",
"N. c #F5C400",
"B. c #FDC500",
"V. c #F7CB00",
"C. c #FDCB00",
"Z. c #E4DE02",
"A. c #8A855A",
"S. c #AE8B42",
"D. c #AEA043",
"F. c #8A816C",
"G. c #9E8A67",
"H. c #91866A",
"J. c #939868",
"K. c #AA8969",
"L. c #B08678",
"P. c #A29071",
"I. c #B99978",
"U. c #BDA571",
"Y. c #BCAA7D",
"T. c #A8B879",
"R. c #CEA953",
"E. c #D9B864",
"W. c #D7BA78",
"Q. c #E5AE68",
"!. c #F7CB67",
"~. c #F1C479",
"^. c #F9D174",
"/. c #FED57A",
"(. c #9FA485",
"). c #BBAB86",
"_. c #AAAAA9",
"`. c #CDB688",
"'. c #D6B18D",
"]. c #C5AE96",
"[. c #FAACA3",
"{. c #D8D08F",
"}. c #DDC895",
"|. c #E5C986",
" X c #FBD889",
".X c #E9D29B",
"XX c #FBDE99",
"oX c #E0C2A4",
"OX c #FFCEA6",
"+X c #EBD6A1",
"@X c #E9D5A6",
"#X c #F5DCA3",
"$X c #FCE1A4",
"%X c #FDE5AB",
"&X c #CFD1CF",
"*X c #FAE9C3",
/* pixels */
"y.y.y.y.y.y.y.y.y.y.y.y.y.y.y.y.y.y.y.y.y.y.y.y.y.y.y.y.y.y.y.y.y.y.y.y.y.y.y.y.y.y.y.y.y.y.y.y.y.y.y.y.y.y.y.y.y.y.y.y.y.y.y.y.",
"y.y.y.y.y.y.y.y.y.y.y.y.y.y.y.y.y.y.y.y.y.y.y.y.y.y.y.y.y.y.y.y.y.y.y.y.y.y.y.y.y.y.y.y.y.y.y.y.y.y.y.y.y.y.y.y.y.y.y.y.y.y.y.y.",
"y.y.y.y.y.y.y.y.y.y.y.y.y.y.y.y.y.y.y.y.y.y.y.y.y.y.y.y.y.y.y.y.y.y.y.y.y.y.y.y.y.y.y.y.y.y.y.y.y.y.y.y.y.y.y.y.y.y.y.y.y.y.y.y.",
"y.y.y.y.y.y.y.y.y.y.y.y.y.y.y.y.y.y.y.y.y.y.y.y.y.y.y.y.y.y.y.y.y.y.y.y.y.y.y.y.y.y.y.y.y.y.y.y.y.y.y.y.y.y.y.y.y.y.y.y.y.y.y.y.",
"y.y.y.y.y.y.y.y.y.y.y.y.y.y.y.y.y.y.y.y.y.y.y.y.y.y.y.y.y.y.y.y.y.y.y.y.y.y.y.y.y.y.y.y.y.y.y.y.y.y.y.y.y.y.y.y.y.y.y.y.y.y.y.y.",
"y.y.y.y.y.y.y.y.y.y.y.y.y.y.y.y.y.y.y.y.y.y.y.y.y.y.y.y.y._ _ _ _ _ _ _ _ _ y.y.y.y.y.y.y.y.y.y.y.y.y.y.y.y.y.y.y.y.y.y.y.y.y.y.",
"y.y.y.y.y.y.y.y.y.y.y.y.y.y.y.y.y.y.y.y.y.y.y.y.y.y.y.y.y._ _ _ _ _ _ _ _ _ _ _ y.y.y.y.y.y.y.y.y.y.y.y.y.y.y.y.y.y.y.y.y.y.y.y.",
"y.y.y.y.y.y.y.y.y.y.y.y.y.y.y.y.y.y.y.y.y.y.y.y.y.y.y._ _ _ _ _ _ _ _ _ _ _ _ _ _ _ y.y.y.y.y.y.y.y.y.y.y.y.y.y.y.y.y.y.y.y.y.y.",
"y.y.y.y.y.y.y.y.y.y.y.y.y.y.y.y.y.y.y.y.y.y.y.y.y.y.y._ _ _ _ _ _ _ _ _ _ _ _ _ _ _ _ y.y.y.y.y.y.y.y.y.y.y.y.y.y.y.y.y.y.y.y.y.",
"y.y.y.y.u.y.y.y.y.u.y.y.y.y.y.y.y.y.y.y.y.y.y.y.y.y.y._ _ _ _ _ _ _ _ _ _ _ _ _ _ _ _ _ y.y.y.y.y.y.y.y.y.y.y.y.y.y.y.y.y.y.y.y.",
"y.y.y.u.i.i.y.y.i.i.y.y.y.y.y.y.y.y.y.y.y.y.y.y.y.y.y.y._ _ _ _ _ _ _ _ _ _ _ _ _ _ _ _ y.y.y.y.y.y.y.y.y.y.y.y.y.y.y.y.y.y.y.y.",
"y.y.u.u.u.u.u.u.u.u.u.u.y.y.y.y.y.y.y.y.y.y.y.y.y.y.y.y.y._ _ _ _ _ _ _ _ _ _ _ _ _ _ _ _ y.y.y.y.y.y.y.y.y.y.y.y.y.y.y.y.y.y.y.",
"y.y.u.u.u.u.u.u.u.u.u.u.y.y.y.y.y.y.y.y.y.y.y.y.y.y.y.y.y._ _ _ _ _ _ _ _ _ _ _ _ _ _ _ _ y.y.y.y.y.y.y.y.y.y.y.y.y.y.y.y.y.y.y.",
"y.y.y.y.y.y.y.y.y.y.y.y.y.y.y.y.y.y.y.y.y.y.y.y.y._ _ _ ~ 0 b Q ^ y.y.y.y.y.y.y.y.y.y.y.y.y.y.y.y.y.y.y.y.y.y.y.y.y.y.y.y.y.y.y.",
"y.y.y.y.y.y.y.y.y.y.y.y.y.y.y.y.y.y.y.y.y.y.y.y.) , z = D A S 6.A U _ y.y.y.y.y.y.y.y.y.y.y.y.y.y.y.y.y.y.y.y.y.y.y.y.y.y.y.y.y.",
"y.y.y.y.y.y.y.y.y.y.y.y.y.y.y.y.y.y.y.y.y.y.y.P B S A A A A S 6.7.F Y y.y.y.y.y.y.y.y.y.y.y.y.y.y.y.y.y.y.y.y.y.y.y.y.y.y.y.y.y.",
"y.y.y.y.y.y.y.y.y.y.y.y.y.y.y.y.y.y.y.y.y.y._ V A A A A A A A 6.7.7.S ~ _ _ y.y.y._ _ _ y.y.y.y.y.y.y.y.y.y.y.y.y.y.y.y.y.y.y.y.",
"y.y.y.y.y.y.y.y.y.y.y.y.y.y.y.y.y.y.y.y.y.y.J A A A A A A A A S 6.7.6.y _ _ _ y.y.y.y.y.y.y.y.y.y.y.y.y.y.y.y.y.y.y.y.y.y.y.y.y.",
"y.y.y.y.y.y.y.y.y.y.y.y.y.y.y.y.y.y.y.y.y._ = A A A A A A A A A A A A n U _ _ _ y.y.y.y.y.y.y.y.y.y.y.y.y.y.y.y.y.y.y.y.y.y.y.y.",
"y.y.y.y.y.y.y.y.y.y.y.y.y.y.y.u.u.y.i.y.y._ A A A A A A A A A A A A A A 5 _ _ _ _ y.y.y.y.y.y.y.y.y.y.y.y.y.y.y.y.y.y.y.y.y.y.y.",
"y.y.y.y.y.y.y.y.y.y.y.y.y.y.y.u.u.u.u.u.y.^ A A A A A A A A A A A A A A B ^ _ _ P y.y.y.y.y.y.y.y.y.y.y.y.y.y.y.y.y.y.y.y.y.y.y.",
"y.y.y.y.y.y.y.y.y.y.y.y.y.y.y.y.y.y.y.y.y.^ b v b b b l A A A A A n n b l G 2 = * y.y.y.y.y.y.y.y.y.y.y.y.y.y.y.y.y.y.y.y.y.y.y.",
"y.y.y.y.y.y.y.y.y.y.y.y.y.y.y.y.y.y.y._ U 6 F S A A A > s s $ @ # p a f f ; k > < y.y.y.y.y.y.y.y.y.y.y.y.y.y.y.y.y.y.y.y.y.y.y.",
"y.y.y.y.y.y.y.y.y.y.y.y.y.y.y.y.y.y.J V A A A A A A A v a f f d d d d d d ; > > Y y.y.y.y.y.y.y.y.y.y.y.y.y.y.y.y.y.y.y.y.y.y.y.",
"y.y.y.y.y.y.y.y.y.y.y.y.y.y.y.y._ J A A A A A A A A A A v i p d d d d d a + > 5 _ y.y.y.y.y.y.y.y.y.y.y.y.y.y.y.y.y.y.y.y.y.y.y.",
"y.y.y.y.y.y.y.y.y.y.y.y.y.y.y.y._ z A A A A A A A A A A A A F : . @ # @ . n 5 _ y.y.y.y.y.y.y.y.y.y.y.y.y.y.y.y.y.y.y.y.y.y.y.y.",
"y.y.y.y.y.y.y.y.y.y.y.y.y.y.y.y.) 7 n A A A n n n b b l l l l l l k : h 2.J _ y.y.y.y.y.y.y.y.y.y.y.y.y.y.y.y.y.y.y.y.y.y.y.y.y.",
"y.y.y.y.y.y.y.y.y.y.y.y.y.y.y.y._ H 6 7 7 7 : : j O.O. . .X.1.f.z.m.V.Z.W _ y.y.y.y.y.y.y.y.y.y.y.y.y.y.y.y.y.y.y.y.y.y.y.y.y.y.",
"y.y.y.y.y.y.y.y.y.y.y.y.y.y.y.y.y._ _ _ _ } +XE.N.C.C.C.B.n.n.3.4.C.j...I y.y.y.y.y.y.y.y.y.y.y.y.y.y.y.y.y.y.y.y.y.y.y.y.y.y.y.",
"y.y.y.y.y.y.y.y.y.y.y.y.y.y.y.y.y.y.y.y._ <.9.f.c.c.z.3.l.4.%.Y.k.D.@._.H y.y.y.y.y.y.y.y.y.y.y.y.y.y.y.y.y.y.y.y.y.y.y.y.y.y.y.",
"y.y.y.y.y.y.y.y.y.y.y.y.y.y.y.y.y.y.y.y._ A./.!.|..X#X`.u q e.}.*X%XF.u H y.y.y.y.y.y.y.y.y.y.y.y.y.y.y.y.y.y.y.y.y.y.y.y.y.y.y.",
"y.y.y.y.y.y.y.y.y.y.y.y.y.y.y.y.y.y.y.y.y.! .X/.^.$XOX[.t.H.+X#X%X%X+XL.s.y.y.y.y.y.y.y.y.y.y.y.y.y.y.y.y.y.y.y.y.y.y.y.y.y.y.y.",
"y.y.y.y.y.y.y.y.y.y.y.y.y.y.y.y.y.y._ y.y.a.d.h.5.R.E.Q.~. XXX#X`.$X|.=._ y.y.y.y.y.y.y.y.y.y.y.y.y.y.y.y.y.y.y.y.y.y.y.y.y.y.y.",
"y._ _ _ _ _ y.y.y.y.y.y.y._ _ _ _ y._ _ ^ d.C.C.N.m.b.X.;.+.#.8.&.@.U y.y.y.y.y.y.y.y.y.y.y.y.y.y.y.y.y.y.y.y.y.y.y.y.y.y.y.y.y.",
"_ _ _ _ _ _ y.y.y.y.y.y.y._ _ _ _ y.( d.c.B.C.g.U.N I.b C w.S.I.+ G.| _ y.y.y.y.y.y.y.y.y.y.y.y.y.y.y.y.y.y.y.y.y.y.y.y.y.y.y.y.",
"_ _ _ _ _ _ y.y.y.y.y.y.y._ _ _ _ y.) o.x.M.M.5.P.oXK.$.: K.g N k C ].` y.y.y.y.y.y.y.y.y.y.y.y.y.y.y.y.y.y.y.y.y.y.y.y.y.y.y.y.",
"_ _ _ _ _ _ y.y.y.y.y.y.y.y.y.y.y.y._ X.v.v.n.%XW.I.%.% & B V r.& e H.G _ _ y.y.y.y.y.y.y.y.y.y.y.y.y.y.y.y.y.y.y.y.y.y.y.y.y.y.",
"_ _ _ _ _ y.y.y.y.y.y.y.y.y.y.y.y.y.y._ ( [ h %XU.{ = - + :.'.;.: @.%Xp.y._ y.y.y.y.y.y.y.y.y.y.y.y.y.y.y.y.y.y.y.y.y.y.y.y.y.y.",
"y.y.y.y.y.y.y.y.y.y.y.y.y.y.y.y.y.y.y.y.y.y.] Z k X % + + q.0.e : %.%XT.y.y.y.y.y.y.y.y.y.y.y.y.y.y.y.y.y.y.y.y.y.y.y.y.y.y.y.y.",
"y.y.y.y.y.y.y.y.y.y.y.y.y.y.y.y.y.y.y.y.y.y.) k & > % 7 : -.&Xx : m G.J.y.y.y.y.y.y.y.y.y.y.y.y.y.y.y.y.y.y.y.y.y.y.y.y.y.y.y.y.",
"y.y.y.y.y.y.y.y.y.y.y.y.y.y.y.y.y.y.y.y.y.y._ 5 k k : V : r >.- : l k O ^ y.y.y.y.y.y.y.y.y.y.y.y.y.y.y.y.y.y.y.y.y.y.y.y.y.y.y.",
"y.y.y.y.y.y.y.y.y.y.y.y.y.y.y.y._ _ _ _ _ y._ 9 k k % % % k b : - & o o ) y.y.y.y.y.y.y.y.y.y.y.y.y.y.y.y.y.y.y.y.y.y.y.y.y.y.y.",
"y.y.y.y.y.y.y.y.y.y.y.y.y.y.y.y._ _ _ _ _ y.y.) = %   k w c b k l w * > P y.y.y.y.y.y.y.y.y.y.y.y.y.y.y.y.y.y.y.y.y.y.y.y.y.y.y.",
"y.y.y.y.y.y.y.y.y.y.y.y.y.y.y.y._ _ _ _ y.y.y.y.~ 1 m z 7 7 7 % z ,.N > U y.y.y.y.y.y.y.y.y.y.y.y.y.y.y.y.y.y.y.y.y.y.y.y.y.y.y.",
"y.y.y.y.y.y.y.y.y.y.y.y.y.y.y.y.y.y.y.y.y.y.y.y.y.G +XXX*.y._ t W.%X).6 y.y.y.y.y.y.y.y.y.y.y.y.y.y.y.y.y.y.y.y.y.y.y.y.y.y.y.y.",
"y.y.y.y.y.y.y.y.y.y.y.y.y.y.y.y.y.y.y.y.y.y.y.y.) (.%X{.] y.' &X*.%X%X<.y.y.y.y.y.y.y.y.y.y.y.y.y.y.y.y.y.y.y.y.y.y.y.y.y.y.y.y.",
"y.y.y.y.y.y.y._ _ _ _ y.y.y.y.y.y.y.y.y.y.y.y.y.E l w.A._ y.` ' / q.M k ) y.y.y.y.y.y.y.y.y.y.y.y.y.y.y.y.y.y.y.y.y.y.y.y.y.y.y.",
"y.y.y.y.y.y._ _ _ _ _ _ y.y.y.y.y.y.y.y.y.y.y._ 3 l b 9 _ y.y.y._ > l > ^ y.y.y.y.y.y.y.y.y.y.y.y.y.y.y.y.y.y.y.y.y.y.y.y.y.y.y.",
"y.y.y.y.y.y._ _ _ _ _ _ y.y.y.y.y.y.y.y.y.~ Q 0 e k = Y y.u.u.y.y.I > l 0 T U _ y.y.y.y.y.y.y.y.y.y.y.y.y.y.y.y.y.y.y.y.y.y.y.y.",
"y.y.y.y.y.y._ _ _ _ _ y.y.y.y.y.y.y.y._ J b A b b b w ~ y.y.y.y.y.< l b b A n 9 ) y.y.y.y.y.y.y.y.y.y.y.y.y.y.y.y.y.y.y.y.y.y.y.",
"y.y.y.y.y.y._ _ _ _ y.y.y.y.y.y.y.y.y._ m b b b l l c K y.y.y.y._ k b l b b n b Y y.y.y.y.y.y.y.y.y.y.y.y.y.y.y.y.y.y.y.y.y.y.y.",
"y.y.y.y.y.y.y.y.y.y.y.y.y.y.y.y.y.y.y._ T L K K K R K U y.y.y.y._ K 3 3 2 4 4 4 ~ y.y.y.y.y.y.y.y.y.y.y.y.y.y.y.y.y.y.y.y.y.y.y.",
"y.y.y.y.y.y.y.y.y.y.y.y.y.y.y.y.y.y.y.y.y.y.y.y.y.y.y.y.y.y.y.y.y.y.y.y.y.y.y.y.y.y.y.y.y.y.y.y.y.y.y.y.u.y.y.y.y.y.y.y.y.y.y.y.",
"y.y.y.y.y.y.y.y.y.y.y.y.y.y.y.y.y.y.y.y.y.y.y.y.y.y.y.y.y.y.y.y.y.y.y.y.y.y.y.y.y.y.y.y.y.y.y.y.y.y.y.y.y.y.y.y.y.y.y.y.y.y.y.y.",
"y.y.y.y.y.y.y.y.y.y.y.y.y.y.y.y.y.y.y.y.y.y.y.y.y.y.y.y.y.y.y.y.y.y.y.y.y.y.y.y.y.y.y.y.y.y.y.y.y.y.y.y.y.y.y.y.y.y.y.y.y.y.y.y.",
"y.y.y.y.y.y.y.y.y.y.y.y.y.y.y.y.y.y.y.y.y.y.y.y.y.y.y.y.y.y.y.y.y.y.y.y.y.y.y.y.y.y.y.y.y.y.y.y.y.y.y.y.y.y.y.y.y.y.y.y.y.y.y.y.",
"y.y.y.y.y.y.y.y.y.y.y.y.y.y.y.y.y.y.y.y.y.y.y.y.y.y.y.y.y.y.y.y.y.y.y.y.y.y.y.y.y.y.y.y.y.y.y.y.y.y.y.y.y.y.y.y.y.y.y.y.y.y.y.y.",
"y.y.y.y.y.y.y.y.y.y.y.y.y.y.y.y.y.y.y.y.y.y.y.y.y.y.u.y.u.y.y.y.y.y.y.y.y.y.y.y.y.y.y.y.y.y.y.y.y.y.y.y.y.y.y.y.y.y.y.y.y.y.y.y.",
"y.y.y.y.y.y.y.y.y.y.y.y.y.y.y.y.y.y.y.y.y.y.y.y.y.u.u.u.u.u.y.y.y.y.y.y.y.y.y.y.y.y.y.y.y.y.y.y.y.y.y.y.y.y.y.y.y.y.y.y.y.y.y.y.",
"y.y.y.y.y.y.y.y.y.y.y.y.y.y.y.y.y.y.y.y.y.y.y.y.y.y.y.y.y.y.y.y.y.y.y.y.y.y.y.y.y.y.y.y.y.y.y.y.y.y.y.y.y.y.y.y.y.y.y.y.y.y.y.y.",
"y.y.y.y.y.y.y.y.y.y.y.y.y.y.y.y.y.y.y.y.y.y.y.y.y.y.y.y.y.y.y.y.y.y.y.y.y.y.y.y.y.y.y.y.y.y.y.y.y.y.y.y.y.y.y.y.y.y.y.y.y.y.y.y.",
"y.y.y.y.y.y.y.y.y.y.y.y.y.y.y.y.y.y.y.y.y.y.y.y.y.y.y.y.y.y.y.y.y.y.y.y.y.y.y.y.y.y.y.y.y.y.y.y.y.y.y.y.y.y.y.y.y.y.y.y.y.y.y.y.",
"y.y.y.y.y.y.y.y.y.y.y.y.y.y.y.y.y.y.y.y.y.y.y.y.y.y.y.y.y.y.y.y.y.y.y.y.y.y.y.y.y.y.y.y.y.y.y.y.y.y.y.y.y.y.y.y.y.y.y.y.y.y.y.y.",
"y.y.y.y.y.y.y.y.y.y.y.y.y.y.y.y.y.y.y.y.y.y.y.y.y.y.y.y.y.y.y.y.y.y.y.y.y.y.y.y.y.y.y.y.y.y.y.y.y.y.y.y.y.y.y.y.y.y.y.y.y.y.y.y."
};
