/* XPM */
static char *tree[] = {
/* columns rows colors chars-per-pixel */
"64 64 111 2 ",
"   c #1E0F00",
".  c #1D1300",
"X  c #1C1B01",
"o  c #200F00",
"O  c #231400",
"+  c #2B1600",
"@  c #231B01",
"#  c #351B00",
"$  c #3B1D00",
"%  c #142302",
"&  c #1C2402",
"*  c #132C03",
"=  c #1C2A02",
"-  c #0D3504",
";  c #073F05",
":  c #133203",
">  c #252401",
",  c #2D2501",
"<  c #262B02",
"1  c #2B2E02",
"2  c #352201",
"3  c #3B2200",
"4  c #322A02",
"5  c #382A01",
"6  c #233503",
"7  c #2D3503",
"8  c #2B3D04",
"9  c #353302",
"0  c #303904",
"q  c #054506",
"w  c #0C4505",
"e  c #004D07",
"r  c #0C4C06",
"t  c #1D4706",
"y  c #114A06",
"u  c #1B4806",
"i  c #015207",
"p  c #0B5207",
"a  c #015C07",
"s  c #005408",
"d  c #005B09",
"f  c #1F5807",
"g  c #135E08",
"h  c #254505",
"j  c #2B4205",
"k  c #254B06",
"l  c #324C05",
"z  c #245306",
"x  c #2A5306",
"c  c #225A07",
"v  c #295907",
"b  c #385706",
"n  c #325A06",
"m  c #3B5C06",
"M  c #00630A",
"N  c #006B0A",
"B  c #0F6E0A",
"V  c #156409",
"C  c #186208",
"Z  c #126A09",
"A  c #0A750B",
"S  c #027D0C",
"D  c #0C7D0C",
"F  c #14760B",
"G  c #1A740A",
"H  c #137D0C",
"J  c #1A7F0C",
"K  c #2E6308",
"L  c #256F09",
"P  c #2C6D09",
"I  c #306007",
"U  c #3E6107",
"Y  c #3F6708",
"T  c #336B08",
"R  c #22730A",
"E  c #2B7209",
"W  c #237E0B",
"Q  c #2B7F0B",
"!  c #327209",
"~  c #347F0B",
"^  c #3B7E0B",
"/  c #416407",
"(  c #436807",
")  c #436708",
"_  c #456B08",
"`  c #486F08",
"'  c #437209",
"]  c #4B7409",
"[  c #457D0A",
"{  c #4E7A0A",
"}  c #517D0A",
"|  c #00800D",
" . c #038A0A",
".. c #1E800C",
"X. c #2B810B",
"o. c #36840C",
"O. c #3D820B",
"+. c #43820B",
"@. c #49800B",
"#. c #4F8A0C",
"$. c #54810B",
"%. c #58860B",
"&. c #578B0C",
"*. c #59880C",
"=. c #59910C",
"-. c #65970D",
";. c #67990D",
":. c #689C0D",
">. c #6CA10E",
",. c #71A50E",
"<. c #73A90F",
/* pixels */
"| | | | | | | | | | | | | | | | | | | | | | | | | | | | | | | D D | S X.$.X.| | | | D H | | | | | | | | | | | | | | | | | | | | ",
"| | | | | | | | | | | | | | | | | | | | | | | | S W W D | | | X.O.H H #.:.+.D | D W ^ ^ D | | | | | | | | | | | | | | | | | | | ",
"| | | | | | | | | | | | | | | | | | | | ..X.J S H [ $.^ J S D @.-.+.O.:.,.&.J J ^ @.$.{ H | | | | | | | | | | | | | | | | | | | ",
"| | | | | | | | | | | | | | | | | | | S O.-.=.o.Q } $.$.@.^ ~ *.>.-.*.,.,.*.[ @.$.} } { J | D J ..H | | | | | | | | | | | | | | ",
"| | | | | | | | | | | | | | | H W H D D ^ -.,.:.$.$.$.$.$.$.$.*.:.-.-.,.>.*.$.$.} ] ] { ~ o.#.*.&.W | | | | | | | | | | | | | | ",
"| | | | | | | | | | | | | | | Q &.=.#.O.+.*.:.,.-.$.$.$.$.$.$.$.%.%.%.-.=.$.$.} } } ] $.=.:.,.:.&.J | | | | | | | | | | | | | | ",
"| | | | | | | | | | | | | | | J &.,.,.>.-.*.*.*.%.$.$.$.$.$.{ ] { } $.} } } { { $.} ] -.,.<.:.*.{ W H H D S | | | | | | | | | | ",
"| | | | | | | | | | | | S D H H +.-.,.<.<.:.$.$.$.$.$.$.$.$.] } $.} } } %.*.$.] } } } -.:.-.%.$.$.{ { { ^ R S | | | | | | | | | ",
"| | | | | | | | | | | | G Y [ @.@.$.-.:.:.-.$.$.$.$.$.$.$.} ] *.:.%.{ *.>.:.$.] } $.$.$.$.$.$.$.$.$.$.} ] P S | | | | | | | | | ",
"| | | | | | | | | | | | G U ] $.$.$.$.$.%.$.$.$.$.$.$.$.$.$.] } -.*.$.:.>.*.{ ] $.$.$.$.$.$.$.} { ] _ _ T F S | | | | | | | | | ",
"| | | | S S | | D F G G R U _ { $.$.$.$.$.$.$.$.*.-.*.$.$.$.{ { $.$.$.-.*.$.] %.*.*.} } $.$.$.{ _ / _ ] ' ! R H S | | | | | | | ",
"| | | S S S S S L Y ' ' ' _ _ _ ] } $.$.$.} $.-.>.>.*.$.$.$.$.$.$.$.$.$.$.$.%.:.,.>.-.} } $.$.} ] _ *.;.;.*.{ ' R S | | | | | | ",
"| | | S S S | | G _ } $.$.$.} ] ( ] } $.$.{ *.:.;.*.$.$.$.$.$.$.$.$.$.$.$.$.$.*.-.;.;.$.] } $.$.} ] %.-.-.*.$.] E S | | | | | | ",
"| | | | | | | | S P ] } $.$.$.{ ] } $.$.} ] } $.} } { { $.$.$.$.$.$.$.$.$.$.} ] ] ] ] ] _ ] $.$.} ` ] } } { ] T D | | | | | | | ",
"| | | | | | | S F P / _ ] ] ] ` } $.$.$.} _ _ _ ] ] ] $.-.-.$.$.$.$.$.$.$.$.$.{ ] ` _ _ _ _ ] ] ` / / _ _ / U L F D | | | | | | ",
"| | | | | S F P Y _ ] ] ] ] _ ] $.$.$.} { ] { } } } $.-.<.,.*.$.$.$.$.$.$.$.$.$.$.$.$.$.$.} ] / / _ _ ] ] ] ] ] ( P S | | | | | ",
"| | | | | S P ] } } $.$.$.} ] _ ] { ] ` ] } $.$.$.$.$.:.<.,.-.$.$.$.$.$.$.$.$.*.*.$.$.$.$.$.} ] ` } } $.$.$.} ] ( R S | | | | | ",
"| | | | | | F Y ] } } } { ] _ _ _ _ ( / ] $.$.$.$.$.$.:.<.,.*.$.$.$.$.$.$.$.%.:.>.-.} } $.$.$.{ ] $.$.$.} ] _ / T D S | | | | | ",
"| | | | | | S G Y _ _ _ _ ] $.*.-.$.] / ] $.$.$.$.} $.;.<.>.*.$.$.$.$.$.$.$.$.-.,.>.%.` ` ] { ] _ ] ] ] _ ( _ _ Y ! R F S | | | ",
"| | | | | S A P U / _ } *.:.>.>.;.%.] / _ } $.$.} ] } *.>.-.$.} $.$.$.$.$.} ] $.*.;.*.` / / _ _ ( ( / / / _ ] { ] ] _ P S | | | ",
"| | | | S Z K U / ] } *.;.-.-.*.$.] / / / ` { { _ / ] $.*.$.} ` } $.$.$.$.] / _ { $.} _ / ] *.-.-.%.] / / / / / / m I H | | | | ",
"| | | S Z v U / ( { } $.$.$.} } ] / / / / / / / / / / ] $.$.] / ` } $.$.} _ / / / _ _ / ] *.>.,.,.>.-.{ _ U b l j k Z | | | | | ",
"| | | A z m / / / _ _ _ _ _ _ _ / _ ] ] _ / / / $.*.] _ ] ] _ / / ] } } ] / / _ ] ] ( / ] %.*.*.*.*.%.$.] / m b j j z Z S | | | ",
"| | | Z j l b b b b m / ( ` _ / _ *.:.-.} _ / { :.,.*._ / / / / / / _ _ / / _ } $.$.{ _ _ ] } } } } } ] _ / / U b j j h V S | | ",
"| | | A z j j j j j m _ } } ] _ $.>.<.:.$.] / %.,.>.*.{ / / / / _ ] { ] ( / ] $.$.$.$.{ _ / _ _ ] ] ` _ U m b b l j j j k A | | ",
"| | | S A V c k j l / ] } ] _ ` -.<.>.*.} _ ( %.,.:.%.} _ / / / { *.-.*.] / ] $.$.$.$.$.] / / ] } } } { _ m l j j j j j f S | | ",
"| | | | | | D z j b / / / m / ] :.,.-.$.] / / } :.-.$.$._ / / _ $.>.<.:.$._ _ } $.$.$.$.} ] / ] } $.$.$.} ` m j j j j f S | | | ",
"| | | | | S V j j l b b l b / } ;.-.$.] _ / / ] $.$.$.} _ / / _ $.>.<.>.*.` / _ { $.$.$.$.{ _ _ ` ] ] ] ] _ m l k l k Z S | | | ",
"| | | | | A k 8 j j j j j b / ] $.} ] / / / / _ } $.$.} ( / / _ $.:.<.>.*.` _ _ ( ` ] ] ] ] _ ] { _ m b m m b j b m b z A | | | ",
"| | | | | A k j j j j j j m / _ ] _ / _ _ / _ _ ` } } ] _ ] ] _ } -.<.>.$.] { } _ / ( / / / / _ } } _ l j j j j j l l z A | | | ",
"| | | | | S B k j l b b j m / / / U _ { ] ] } } ] _ _ ( ] $.$.] { *.,.:.$.` } $.] _ ] { ` m m / _ } { m j j b b l j k Z S | | | ",
"| | | | | | S f l m / m l l b m b m ] } _ ] $.$.} _ / ( } $.$.] ] $.-.*.{ _ } $.] ( { $.} m l b U ( _ b l ) ] { ] ) b c S | | | ",
"| | | | | | Z x m / / m j j j j j m ] ` U _ } $.$.] m m ] $.$.] / { $.$.] / { $.] m _ } } m j j l b b j b ] } } } } _ b Z | | | ",
"| | | | | S c m / U m l b m m b j l m b l m { $.$.` b k m ] ] / b _ } } / m _ } ] l b / _ b j j j j j j b / _ _ _ / m x B | | | ",
"| | | | | S z l b l j b ] } ] U b j j j j l _ } { U k j k b m l j m ( ( m j b / m j j l b k j m _ _ b j j b b b l k z Z S | | | ",
"| | | | | S A f k j l ` $.} ` U l l b b l j b / m l j j j j j j j l m b j j j j j j j j j j b ( } $.] b j j j j k V A S | | | | ",
"| | | | | | | S Z k m } } ] U b j m ] ] U l j j j j b U b j j j j j j j j j j j k j j j j j b / ] $.$._ j j b l c S | | | | | | ",
"| | | | | | | S C l _ ] _ m l j l _ $.{ / b j 8 j l ] } ( b j j j l j j j j b m U m j j j j l U ( ] $.] l l U U n Z S | | | | | ",
"| | | | | | | A k l m m l j j 8 l _ $.] / b j 8 j b ] } _ m j j m _ _ b j j m / / U l j 8 8 j l m / ] ] b j b m m c S | | | | | ",
"| | | | | | | A k j j j j j j j l _ } _ U l j j j l ` } _ m j l U ] $._ l j m / / / b j j j j j k b m U l j j x v C S | | | | | ",
"| | | | | | | S V z k j l m b j j / ] / b j b m b k m _ / b j l / ] $.] b j b / / / b j j b m m k j j j j 8 k B S S | | | | | | ",
"| | | | | | | | S S A z m / m j j m / b j l U / U b l m b j j l U ] $.] b j l m / / b j j m / / m j 8 j j j j Z | | | | | | | | ",
"| | | | | | | | | | A x m U l j j l l j j b / / / m j j j 8 8 j m _ } ] l 8 j l m U l 8 j b / / U l j j j j j V S | | | | | | | ",
"| | | | | | | | | | Z k b l j j j j j j j b / / / m j j j j j j b / ] / j l j j j l j 8 j l U / / b j h h j h g S | | | | | | | ",
"| | | | | | | | | | B k j j h t h j j j 8 l U / U b j j l m m l j b U b l m b j 8 j j j j j b m / m k r r r r i A | | | | | | | ",
"| | | | | | | | | | S V f g p e t j j j j j m U b j 8 j b / / b j j j j b U m k 8 j j j j j j l b b k e e e e e M | | | | | | | ",
"| | | | S S | | | | | S S A s e y h j h h j j l j j j j b / m l 8 j j j l U m l j j j j j u r t h k y e e e e e d S | | | | | | ",
"| | | S S S S | | | | | | N i e e r y e y j j j j 8 8 8 k b l j 8 j j j j b m l 8 j j 8 h r e e e r e e e e e e d S | | | | | | ",
"| | | S S S S | | | | | | N i e e e e e q 6 8 8 8 < @ , 8 j 8 8 j j j 8 8 j k 8 4 7 8 j 8 w e e e e e e e e e e d S | | | | | | ",
"| | | | S | | | | | | | | A s e e e e e e : = & X . O # 9 9 5 3 0 8 j 8 5 9 8 < O O , 1 , : e e e e e e e e e e d S | | | | | | ",
"| | | | | | | | | | | | | S d e e e e e e e q ; - % O $ 3 3 $ # 2 1 7 4 $ 3 3 +   . . X & ; e e e e e e e e e e M S | | | | | | ",
"| | | | | | | | | | | | | S M e e e e e e e e e e q & $ $ $ # + # O O + $ $ $ # X ; q q q e e e e e e e e e e s N | | | | | | | ",
"| | | | | | | | | | | | | | A s e e e e e e e e e e = $ $ $ + O # O     + $ $ $ > q e e e e e e e e e e e e e d S | | | | | | | ",
"| | | | | | | | | | | | | | S N i e e i i i e e e q > $ $ $ O   O . .   o + $ $ # ; e e e e e e e e e e e i a A | | | | | | | | ",
"| | | | | | | | | | | | | | | S M e e i i i i e e q > $ $ # O % - ; - % X . + # # = e e e e e e e e e e i a A  .| | | | | | | | ",
"| | | | | | | | | | | | | | | | S M i e e e e e e q > $ # @ * q e e e e q - % O + X q e e e e e e e e e i N | | | | | | | | | | ",
"| | | | S S S | | | | | | | | | | S M s e e e e e e * X * ; e e e e e e e e q ; * - e e e e e e e e e d N S | | | | | | | | | | ",
"| | | | S S S | | | | | | | | | | | S A d i e e e e q q e e e e e e e e e e e e e e e e e e e e e s M A S | | | | | | | | | | | ",
"| | | | S S | | | | | | | | | | | | | | S N d i e e e e e e e e e e e e e e e e e e e e e e e s M A S | | | | | | | | | | | | | ",
"| | | | | | | | | | | | | | | | | | | | | S S N M s i e e e e e e e e e e e e e e e e e i a N A S | | | | | | | | | | | | | | | ",
"| | | | | | | | | | | | | | | | | | | | | | | | S A N M d s s s i e e e e e i s s s d N A S | | | | | | | | | | | | | | | | | | ",
"| | | | | | | | | | | | | | | | | | | | | | | | | | | S S S A N N N N N N N N A A S S S | | | | | | S | | | | | | | | | | | | | ",
"| | | | | | | | | | | | | | | | | | | | | | | | | | | | | | | | | | | | | | | | | | | | | | | | | | | | | | | | | | | | | | | | ",
"| | | | | | | | | | | | | | | | | | | | | | | | | | | | | | | | | | | | | | | | | | | | | | | | | | | | | | | | | | | | | | | | "
};
